<?xml version="1.0" encoding="utf-8" standalone="no"?>
<!DOCTYPE svg PUBLIC "-//W3C//DTD SVG 1.1//EN"
  "http://www.w3.org/Graphics/SVG/1.1/DTD/svg11.dtd">
<svg xmlns:xlink="http://www.w3.org/1999/xlink" width="684pt" height="446.832pt" viewBox="0 0 684 446.832" xmlns="http://www.w3.org/2000/svg" version="1.1">
 <metadata>
  <rdf:RDF xmlns:dc="http://purl.org/dc/elements/1.1/" xmlns:cc="http://creativecommons.org/ns#" xmlns:rdf="http://www.w3.org/1999/02/22-rdf-syntax-ns#">
   <cc:Work>
    <dc:type rdf:resource="http://purl.org/dc/dcmitype/StillImage"/>
    <dc:date>2026-09-17T15:21:19.707464</dc:date>
    <dc:format>image/svg+xml</dc:format>
    <dc:creator>
     <cc:Agent>
      <dc:title>Matplotlib v3.10.3, https://matplotlib.org/</dc:title>
     </cc:Agent>
    </dc:creator>
   </cc:Work>
  </rdf:RDF>
 </metadata>
 <defs>
  <style type="text/css">*{stroke-linejoin: round; stroke-linecap: butt}</style>
 </defs>
 <g id="figure_1">
  <g id="patch_1">
   <path d="M 0 446.832
L 684 446.832
L 684 0
L 0 0
z
" style="fill: #f8fbf9"/>
  </g>
  <g id="axes_1">
   <g id="patch_2">
    <path d="M 23.94 133.14582
L 157.86 133.14582
Q 162.324 133.14582 162.324 128.8215
L 162.324 63.9567
Q 162.324 59.63238 157.86 59.63238
L 23.94 59.63238
Q 19.476 59.63238 19.476 63.9567
L 19.476 128.8215
Q 19.476 133.14582 23.94 133.14582
z
" clip-path="url(#pbb3846057f)" style="fill: #dcefe8; stroke: #24705a; stroke-width: 1.5; stroke-linejoin: miter"/>
   </g>
   <g id="patch_3">
    <path d="M 182.97 133.14582
L 316.89 133.14582
Q 321.354 133.14582 321.354 128.8215
L 321.354 63.9567
Q 321.354 59.63238 316.89 59.63238
L 182.97 59.63238
Q 178.506 59.63238 178.506 63.9567
L 178.506 128.8215
Q 178.506 133.14582 182.97 133.14582
z
" clip-path="url(#pbb3846057f)" style="fill: #dcefe8; stroke: #24705a; stroke-width: 1.5; stroke-linejoin: miter"/>
   </g>
   <g id="patch_4">
    <path d="M 355.95 133.14582
L 640.53 133.14582
Q 644.994 133.14582 644.994 128.8215
L 644.994 63.9567
Q 644.994 59.63238 640.53 59.63238
L 355.95 59.63238
Q 351.486 59.63238 351.486 63.9567
L 351.486 128.8215
Q 351.486 133.14582 355.95 133.14582
z
" clip-path="url(#pbb3846057f)" style="fill: #dcefe8; stroke: #24705a; stroke-width: 1.5; stroke-linejoin: miter"/>
   </g>
   <g id="patch_5">
    <path d="M 355.95 238.55112
L 640.53 238.55112
Q 644.994 238.55112 644.994 234.2268
L 644.994 174.7674
Q 644.994 170.44308 640.53 170.44308
L 355.95 170.44308
Q 351.486 170.44308 351.486 174.7674
L 351.486 234.2268
Q 351.486 238.55112 355.95 238.55112
z
" clip-path="url(#pbb3846057f)" style="fill: #dcefe8; stroke: #24705a; stroke-width: 1.5; stroke-linejoin: miter"/>
   </g>
   <g id="patch_6">
    <path d="M 23.94 343.95642
L 316.89 343.95642
Q 321.354 343.95642 321.354 339.6321
L 321.354 272.0646
Q 321.354 267.74028 316.89 267.74028
L 23.94 267.74028
Q 19.476 267.74028 19.476 272.0646
L 19.476 339.6321
Q 19.476 343.95642 23.94 343.95642
z
" clip-path="url(#pbb3846057f)" style="fill: #dcefe8; stroke: #24705a; stroke-width: 1.5; stroke-linejoin: miter"/>
   </g>
   <g id="patch_7">
    <path d="M 355.95 343.95642
L 640.53 343.95642
Q 644.994 343.95642 644.994 339.6321
L 644.994 272.0646
Q 644.994 267.74028 640.53 267.74028
L 355.95 267.74028
Q 351.486 267.74028 351.486 272.0646
L 351.486 339.6321
Q 351.486 343.95642 355.95 343.95642
z
" clip-path="url(#pbb3846057f)" style="fill: #dcefe8; stroke: #24705a; stroke-width: 1.5; stroke-linejoin: miter"/>
   </g>
   <g id="text_1">
    <!-- ONE INPUT. TWO ACQUISITION PATHS. -->
    <g style="fill: #143b32" transform="translate(23.94 31.5243) scale(0.2 -0.2)">
     <defs>
      <path id="DejaVuSans-Bold-4f" d="M 2719 3878
Q 2169 3878 1866 3472
Q 1563 3066 1563 2328
Q 1563 1594 1866 1187
Q 2169 781 2719 781
Q 3272 781 3575 1187
Q 3878 1594 3878 2328
Q 3878 3066 3575 3472
Q 3272 3878 2719 3878
z
M 2719 4750
Q 3844 4750 4481 4106
Q 5119 3463 5119 2328
Q 5119 1197 4481 553
Q 3844 -91 2719 -91
Q 1597 -91 958 553
Q 319 1197 319 2328
Q 319 3463 958 4106
Q 1597 4750 2719 4750
z
" transform="scale(0.015625)"/>
      <path id="DejaVuSans-Bold-4e" d="M 588 4666
L 1931 4666
L 3628 1466
L 3628 4666
L 4769 4666
L 4769 0
L 3425 0
L 1728 3200
L 1728 0
L 588 0
L 588 4666
z
" transform="scale(0.015625)"/>
      <path id="DejaVuSans-Bold-45" d="M 588 4666
L 3834 4666
L 3834 3756
L 1791 3756
L 1791 2888
L 3713 2888
L 3713 1978
L 1791 1978
L 1791 909
L 3903 909
L 3903 0
L 588 0
L 588 4666
z
" transform="scale(0.015625)"/>
      <path id="DejaVuSans-Bold-20" transform="scale(0.015625)"/>
      <path id="DejaVuSans-Bold-49" d="M 588 4666
L 1791 4666
L 1791 0
L 588 0
L 588 4666
z
" transform="scale(0.015625)"/>
      <path id="DejaVuSans-Bold-50" d="M 588 4666
L 2584 4666
Q 3475 4666 3951 4270
Q 4428 3875 4428 3144
Q 4428 2409 3951 2014
Q 3475 1619 2584 1619
L 1791 1619
L 1791 0
L 588 0
L 588 4666
z
M 1791 3794
L 1791 2491
L 2456 2491
Q 2806 2491 2997 2661
Q 3188 2831 3188 3144
Q 3188 3456 2997 3625
Q 2806 3794 2456 3794
L 1791 3794
z
" transform="scale(0.015625)"/>
      <path id="DejaVuSans-Bold-55" d="M 588 4666
L 1791 4666
L 1791 1869
Q 1791 1291 1980 1042
Q 2169 794 2597 794
Q 3028 794 3217 1042
Q 3406 1291 3406 1869
L 3406 4666
L 4609 4666
L 4609 1869
Q 4609 878 4112 393
Q 3616 -91 2597 -91
Q 1581 -91 1084 393
Q 588 878 588 1869
L 588 4666
z
" transform="scale(0.015625)"/>
      <path id="DejaVuSans-Bold-54" d="M 31 4666
L 4331 4666
L 4331 3756
L 2784 3756
L 2784 0
L 1581 0
L 1581 3756
L 31 3756
L 31 4666
z
" transform="scale(0.015625)"/>
      <path id="DejaVuSans-Bold-2e" d="M 653 1209
L 1778 1209
L 1778 0
L 653 0
L 653 1209
z
" transform="scale(0.015625)"/>
      <path id="DejaVuSans-Bold-57" d="M 191 4666
L 1344 4666
L 2150 1275
L 2950 4666
L 4109 4666
L 4909 1275
L 5716 4666
L 6859 4666
L 5759 0
L 4372 0
L 3525 3547
L 2688 0
L 1300 0
L 191 4666
z
" transform="scale(0.015625)"/>
      <path id="DejaVuSans-Bold-41" d="M 3419 850
L 1538 850
L 1241 0
L 31 0
L 1759 4666
L 3194 4666
L 4922 0
L 3713 0
L 3419 850
z
M 1838 1716
L 3116 1716
L 2478 3572
L 1838 1716
z
" transform="scale(0.015625)"/>
      <path id="DejaVuSans-Bold-43" d="M 4288 256
Q 3956 84 3597 -3
Q 3238 -91 2847 -91
Q 1681 -91 1000 561
Q 319 1213 319 2328
Q 319 3447 1000 4098
Q 1681 4750 2847 4750
Q 3238 4750 3597 4662
Q 3956 4575 4288 4403
L 4288 3438
Q 3953 3666 3628 3772
Q 3303 3878 2944 3878
Q 2300 3878 1931 3465
Q 1563 3053 1563 2328
Q 1563 1606 1931 1193
Q 2300 781 2944 781
Q 3303 781 3628 887
Q 3953 994 4288 1222
L 4288 256
z
" transform="scale(0.015625)"/>
      <path id="DejaVuSans-Bold-51" d="M 2847 -84
L 2753 -84
Q 1600 -84 959 553
Q 319 1191 319 2328
Q 319 3463 958 4106
Q 1597 4750 2719 4750
Q 3853 4750 4486 4112
Q 5119 3475 5119 2328
Q 5119 1541 4783 972
Q 4447 403 3816 116
L 4756 -934
L 3609 -934
L 2847 -84
z
M 2719 3878
Q 2169 3878 1866 3472
Q 1563 3066 1563 2328
Q 1563 1578 1859 1179
Q 2156 781 2719 781
Q 3272 781 3575 1187
Q 3878 1594 3878 2328
Q 3878 3066 3575 3472
Q 3272 3878 2719 3878
z
" transform="scale(0.015625)"/>
      <path id="DejaVuSans-Bold-53" d="M 3834 4519
L 3834 3531
Q 3450 3703 3084 3790
Q 2719 3878 2394 3878
Q 1963 3878 1756 3759
Q 1550 3641 1550 3391
Q 1550 3203 1689 3098
Q 1828 2994 2194 2919
L 2706 2816
Q 3484 2659 3812 2340
Q 4141 2022 4141 1434
Q 4141 663 3683 286
Q 3225 -91 2284 -91
Q 1841 -91 1394 -6
Q 947 78 500 244
L 500 1259
Q 947 1022 1364 901
Q 1781 781 2169 781
Q 2563 781 2772 912
Q 2981 1044 2981 1288
Q 2981 1506 2839 1625
Q 2697 1744 2272 1838
L 1806 1941
Q 1106 2091 782 2419
Q 459 2747 459 3303
Q 459 4000 909 4375
Q 1359 4750 2203 4750
Q 2588 4750 2994 4692
Q 3400 4634 3834 4519
z
" transform="scale(0.015625)"/>
      <path id="DejaVuSans-Bold-48" d="M 588 4666
L 1791 4666
L 1791 2888
L 3566 2888
L 3566 4666
L 4769 4666
L 4769 0
L 3566 0
L 3566 1978
L 1791 1978
L 1791 0
L 588 0
L 588 4666
z
" transform="scale(0.015625)"/>
     </defs>
     <use xlink:href="#DejaVuSans-Bold-4f"/>
     <use xlink:href="#DejaVuSans-Bold-4e" transform="translate(85.009766 0)"/>
     <use xlink:href="#DejaVuSans-Bold-45" transform="translate(168.701172 0)"/>
     <use xlink:href="#DejaVuSans-Bold-20" transform="translate(237.011719 0)"/>
     <use xlink:href="#DejaVuSans-Bold-49" transform="translate(271.826172 0)"/>
     <use xlink:href="#DejaVuSans-Bold-4e" transform="translate(309.033203 0)"/>
     <use xlink:href="#DejaVuSans-Bold-50" transform="translate(392.724609 0)"/>
     <use xlink:href="#DejaVuSans-Bold-55" transform="translate(466.015625 0)"/>
     <use xlink:href="#DejaVuSans-Bold-54" transform="translate(547.216797 0)"/>
     <use xlink:href="#DejaVuSans-Bold-2e" transform="translate(600.304688 0)"/>
     <use xlink:href="#DejaVuSans-Bold-20" transform="translate(638.292969 0)"/>
     <use xlink:href="#DejaVuSans-Bold-54" transform="translate(673.107422 0)"/>
     <use xlink:href="#DejaVuSans-Bold-57" transform="translate(741.320312 0)"/>
     <use xlink:href="#DejaVuSans-Bold-4f" transform="translate(851.623047 0)"/>
     <use xlink:href="#DejaVuSans-Bold-20" transform="translate(936.632812 0)"/>
     <use xlink:href="#DejaVuSans-Bold-41" transform="translate(971.447266 0)"/>
     <use xlink:href="#DejaVuSans-Bold-43" transform="translate(1048.839844 0)"/>
     <use xlink:href="#DejaVuSans-Bold-51" transform="translate(1122.228516 0)"/>
     <use xlink:href="#DejaVuSans-Bold-55" transform="translate(1207.238281 0)"/>
     <use xlink:href="#DejaVuSans-Bold-49" transform="translate(1288.439453 0)"/>
     <use xlink:href="#DejaVuSans-Bold-53" transform="translate(1325.646484 0)"/>
     <use xlink:href="#DejaVuSans-Bold-49" transform="translate(1397.667969 0)"/>
     <use xlink:href="#DejaVuSans-Bold-54" transform="translate(1434.875 0)"/>
     <use xlink:href="#DejaVuSans-Bold-49" transform="translate(1503.087891 0)"/>
     <use xlink:href="#DejaVuSans-Bold-4f" transform="translate(1540.294922 0)"/>
     <use xlink:href="#DejaVuSans-Bold-4e" transform="translate(1625.304688 0)"/>
     <use xlink:href="#DejaVuSans-Bold-20" transform="translate(1708.996094 0)"/>
     <use xlink:href="#DejaVuSans-Bold-50" transform="translate(1743.810547 0)"/>
     <use xlink:href="#DejaVuSans-Bold-41" transform="translate(1807.976562 0)"/>
     <use xlink:href="#DejaVuSans-Bold-54" transform="translate(1877.619141 0)"/>
     <use xlink:href="#DejaVuSans-Bold-48" transform="translate(1945.832031 0)"/>
     <use xlink:href="#DejaVuSans-Bold-53" transform="translate(2029.523438 0)"/>
     <use xlink:href="#DejaVuSans-Bold-2e" transform="translate(2101.544922 0)"/>
    </g>
   </g>
   <g id="text_2">
    <!-- Antenna + threshold -->
    <g transform="translate(31.16918 86.524975) scale(0.115 -0.115)">
     <defs>
      <path id="DejaVuSans-41" d="M 2188 4044
L 1331 1722
L 3047 1722
L 2188 4044
z
M 1831 4666
L 2547 4666
L 4325 0
L 3669 0
L 3244 1197
L 1141 1197
L 716 0
L 50 0
L 1831 4666
z
" transform="scale(0.015625)"/>
      <path id="DejaVuSans-6e" d="M 3513 2113
L 3513 0
L 2938 0
L 2938 2094
Q 2938 2591 2744 2837
Q 2550 3084 2163 3084
Q 1697 3084 1428 2787
Q 1159 2491 1159 1978
L 1159 0
L 581 0
L 581 3500
L 1159 3500
L 1159 2956
Q 1366 3272 1645 3428
Q 1925 3584 2291 3584
Q 2894 3584 3203 3211
Q 3513 2838 3513 2113
z
" transform="scale(0.015625)"/>
      <path id="DejaVuSans-74" d="M 1172 4494
L 1172 3500
L 2356 3500
L 2356 3053
L 1172 3053
L 1172 1153
Q 1172 725 1289 603
Q 1406 481 1766 481
L 2356 481
L 2356 0
L 1766 0
Q 1100 0 847 248
Q 594 497 594 1153
L 594 3053
L 172 3053
L 172 3500
L 594 3500
L 594 4494
L 1172 4494
z
" transform="scale(0.015625)"/>
      <path id="DejaVuSans-65" d="M 3597 1894
L 3597 1613
L 953 1613
Q 991 1019 1311 708
Q 1631 397 2203 397
Q 2534 397 2845 478
Q 3156 559 3463 722
L 3463 178
Q 3153 47 2828 -22
Q 2503 -91 2169 -91
Q 1331 -91 842 396
Q 353 884 353 1716
Q 353 2575 817 3079
Q 1281 3584 2069 3584
Q 2775 3584 3186 3129
Q 3597 2675 3597 1894
z
M 3022 2063
Q 3016 2534 2758 2815
Q 2500 3097 2075 3097
Q 1594 3097 1305 2825
Q 1016 2553 972 2059
L 3022 2063
z
" transform="scale(0.015625)"/>
      <path id="DejaVuSans-61" d="M 2194 1759
Q 1497 1759 1228 1600
Q 959 1441 959 1056
Q 959 750 1161 570
Q 1363 391 1709 391
Q 2188 391 2477 730
Q 2766 1069 2766 1631
L 2766 1759
L 2194 1759
z
M 3341 1997
L 3341 0
L 2766 0
L 2766 531
Q 2569 213 2275 61
Q 1981 -91 1556 -91
Q 1019 -91 701 211
Q 384 513 384 1019
Q 384 1609 779 1909
Q 1175 2209 1959 2209
L 2766 2209
L 2766 2266
Q 2766 2663 2505 2880
Q 2244 3097 1772 3097
Q 1472 3097 1187 3025
Q 903 2953 641 2809
L 641 3341
Q 956 3463 1253 3523
Q 1550 3584 1831 3584
Q 2591 3584 2966 3190
Q 3341 2797 3341 1997
z
" transform="scale(0.015625)"/>
      <path id="DejaVuSans-20" transform="scale(0.015625)"/>
      <path id="DejaVuSans-2b" d="M 2944 4013
L 2944 2272
L 4684 2272
L 4684 1741
L 2944 1741
L 2944 0
L 2419 0
L 2419 1741
L 678 1741
L 678 2272
L 2419 2272
L 2419 4013
L 2944 4013
z
" transform="scale(0.015625)"/>
      <path id="DejaVuSans-68" d="M 3513 2113
L 3513 0
L 2938 0
L 2938 2094
Q 2938 2591 2744 2837
Q 2550 3084 2163 3084
Q 1697 3084 1428 2787
Q 1159 2491 1159 1978
L 1159 0
L 581 0
L 581 4863
L 1159 4863
L 1159 2956
Q 1366 3272 1645 3428
Q 1925 3584 2291 3584
Q 2894 3584 3203 3211
Q 3513 2838 3513 2113
z
" transform="scale(0.015625)"/>
      <path id="DejaVuSans-72" d="M 2631 2963
Q 2534 3019 2420 3045
Q 2306 3072 2169 3072
Q 1681 3072 1420 2755
Q 1159 2438 1159 1844
L 1159 0
L 581 0
L 581 3500
L 1159 3500
L 1159 2956
Q 1341 3275 1631 3429
Q 1922 3584 2338 3584
Q 2397 3584 2469 3576
Q 2541 3569 2628 3553
L 2631 2963
z
" transform="scale(0.015625)"/>
      <path id="DejaVuSans-73" d="M 2834 3397
L 2834 2853
Q 2591 2978 2328 3040
Q 2066 3103 1784 3103
Q 1356 3103 1142 2972
Q 928 2841 928 2578
Q 928 2378 1081 2264
Q 1234 2150 1697 2047
L 1894 2003
Q 2506 1872 2764 1633
Q 3022 1394 3022 966
Q 3022 478 2636 193
Q 2250 -91 1575 -91
Q 1294 -91 989 -36
Q 684 19 347 128
L 347 722
Q 666 556 975 473
Q 1284 391 1588 391
Q 1994 391 2212 530
Q 2431 669 2431 922
Q 2431 1156 2273 1281
Q 2116 1406 1581 1522
L 1381 1569
Q 847 1681 609 1914
Q 372 2147 372 2553
Q 372 3047 722 3315
Q 1072 3584 1716 3584
Q 2034 3584 2315 3537
Q 2597 3491 2834 3397
z
" transform="scale(0.015625)"/>
      <path id="DejaVuSans-6f" d="M 1959 3097
Q 1497 3097 1228 2736
Q 959 2375 959 1747
Q 959 1119 1226 758
Q 1494 397 1959 397
Q 2419 397 2687 759
Q 2956 1122 2956 1747
Q 2956 2369 2687 2733
Q 2419 3097 1959 3097
z
M 1959 3584
Q 2709 3584 3137 3096
Q 3566 2609 3566 1747
Q 3566 888 3137 398
Q 2709 -91 1959 -91
Q 1206 -91 779 398
Q 353 888 353 1747
Q 353 2609 779 3096
Q 1206 3584 1959 3584
z
" transform="scale(0.015625)"/>
      <path id="DejaVuSans-6c" d="M 603 4863
L 1178 4863
L 1178 0
L 603 0
L 603 4863
z
" transform="scale(0.015625)"/>
      <path id="DejaVuSans-64" d="M 2906 2969
L 2906 4863
L 3481 4863
L 3481 0
L 2906 0
L 2906 525
Q 2725 213 2448 61
Q 2172 -91 1784 -91
Q 1150 -91 751 415
Q 353 922 353 1747
Q 353 2572 751 3078
Q 1150 3584 1784 3584
Q 2172 3584 2448 3432
Q 2725 3281 2906 2969
z
M 947 1747
Q 947 1113 1208 752
Q 1469 391 1925 391
Q 2381 391 2643 752
Q 2906 1113 2906 1747
Q 2906 2381 2643 2742
Q 2381 3103 1925 3103
Q 1469 3103 1208 2742
Q 947 2381 947 1747
z
" transform="scale(0.015625)"/>
     </defs>
     <use xlink:href="#DejaVuSans-41"/>
     <use xlink:href="#DejaVuSans-6e" transform="translate(68.408203 0)"/>
     <use xlink:href="#DejaVuSans-74" transform="translate(131.787109 0)"/>
     <use xlink:href="#DejaVuSans-65" transform="translate(170.996094 0)"/>
     <use xlink:href="#DejaVuSans-6e" transform="translate(232.519531 0)"/>
     <use xlink:href="#DejaVuSans-6e" transform="translate(295.898438 0)"/>
     <use xlink:href="#DejaVuSans-61" transform="translate(359.277344 0)"/>
     <use xlink:href="#DejaVuSans-20" transform="translate(420.556641 0)"/>
     <use xlink:href="#DejaVuSans-2b" transform="translate(452.34375 0)"/>
     <use xlink:href="#DejaVuSans-20" transform="translate(536.132812 0)"/>
     <use xlink:href="#DejaVuSans-74" transform="translate(567.919922 0)"/>
     <use xlink:href="#DejaVuSans-68" transform="translate(607.128906 0)"/>
     <use xlink:href="#DejaVuSans-72" transform="translate(670.507812 0)"/>
     <use xlink:href="#DejaVuSans-65" transform="translate(709.371094 0)"/>
     <use xlink:href="#DejaVuSans-73" transform="translate(770.894531 0)"/>
     <use xlink:href="#DejaVuSans-68" transform="translate(822.994141 0)"/>
     <use xlink:href="#DejaVuSans-6f" transform="translate(886.373047 0)"/>
     <use xlink:href="#DejaVuSans-6c" transform="translate(947.554688 0)"/>
     <use xlink:href="#DejaVuSans-64" transform="translate(975.337891 0)"/>
    </g>
    <!-- Differential input -->
    <g transform="translate(42.281953 99.402459) scale(0.115 -0.115)">
     <defs>
      <path id="DejaVuSans-44" d="M 1259 4147
L 1259 519
L 2022 519
Q 2988 519 3436 956
Q 3884 1394 3884 2338
Q 3884 3275 3436 3711
Q 2988 4147 2022 4147
L 1259 4147
z
M 628 4666
L 1925 4666
Q 3281 4666 3915 4102
Q 4550 3538 4550 2338
Q 4550 1131 3912 565
Q 3275 0 1925 0
L 628 0
L 628 4666
z
" transform="scale(0.015625)"/>
      <path id="DejaVuSans-69" d="M 603 3500
L 1178 3500
L 1178 0
L 603 0
L 603 3500
z
M 603 4863
L 1178 4863
L 1178 4134
L 603 4134
L 603 4863
z
" transform="scale(0.015625)"/>
      <path id="DejaVuSans-66" d="M 2375 4863
L 2375 4384
L 1825 4384
Q 1516 4384 1395 4259
Q 1275 4134 1275 3809
L 1275 3500
L 2222 3500
L 2222 3053
L 1275 3053
L 1275 0
L 697 0
L 697 3053
L 147 3053
L 147 3500
L 697 3500
L 697 3744
Q 697 4328 969 4595
Q 1241 4863 1831 4863
L 2375 4863
z
" transform="scale(0.015625)"/>
      <path id="DejaVuSans-70" d="M 1159 525
L 1159 -1331
L 581 -1331
L 581 3500
L 1159 3500
L 1159 2969
Q 1341 3281 1617 3432
Q 1894 3584 2278 3584
Q 2916 3584 3314 3078
Q 3713 2572 3713 1747
Q 3713 922 3314 415
Q 2916 -91 2278 -91
Q 1894 -91 1617 61
Q 1341 213 1159 525
z
M 3116 1747
Q 3116 2381 2855 2742
Q 2594 3103 2138 3103
Q 1681 3103 1420 2742
Q 1159 2381 1159 1747
Q 1159 1113 1420 752
Q 1681 391 2138 391
Q 2594 391 2855 752
Q 3116 1113 3116 1747
z
" transform="scale(0.015625)"/>
      <path id="DejaVuSans-75" d="M 544 1381
L 544 3500
L 1119 3500
L 1119 1403
Q 1119 906 1312 657
Q 1506 409 1894 409
Q 2359 409 2629 706
Q 2900 1003 2900 1516
L 2900 3500
L 3475 3500
L 3475 0
L 2900 0
L 2900 538
Q 2691 219 2414 64
Q 2138 -91 1772 -91
Q 1169 -91 856 284
Q 544 659 544 1381
z
M 1991 3584
L 1991 3584
z
" transform="scale(0.015625)"/>
     </defs>
     <use xlink:href="#DejaVuSans-44"/>
     <use xlink:href="#DejaVuSans-69" transform="translate(77.001953 0)"/>
     <use xlink:href="#DejaVuSans-66" transform="translate(104.785156 0)"/>
     <use xlink:href="#DejaVuSans-66" transform="translate(139.990234 0)"/>
     <use xlink:href="#DejaVuSans-65" transform="translate(175.195312 0)"/>
     <use xlink:href="#DejaVuSans-72" transform="translate(236.71875 0)"/>
     <use xlink:href="#DejaVuSans-65" transform="translate(275.582031 0)"/>
     <use xlink:href="#DejaVuSans-6e" transform="translate(337.105469 0)"/>
     <use xlink:href="#DejaVuSans-74" transform="translate(400.484375 0)"/>
     <use xlink:href="#DejaVuSans-69" transform="translate(439.693359 0)"/>
     <use xlink:href="#DejaVuSans-61" transform="translate(467.476562 0)"/>
     <use xlink:href="#DejaVuSans-6c" transform="translate(528.755859 0)"/>
     <use xlink:href="#DejaVuSans-20" transform="translate(556.539062 0)"/>
     <use xlink:href="#DejaVuSans-69" transform="translate(588.326172 0)"/>
     <use xlink:href="#DejaVuSans-6e" transform="translate(616.109375 0)"/>
     <use xlink:href="#DejaVuSans-70" transform="translate(679.488281 0)"/>
     <use xlink:href="#DejaVuSans-75" transform="translate(742.964844 0)"/>
     <use xlink:href="#DejaVuSans-74" transform="translate(806.34375 0)"/>
    </g>
    <!-- Autonomous V_REF -->
    <g transform="translate(35.057617 112.279944) scale(0.115 -0.115)">
     <defs>
      <path id="DejaVuSans-6d" d="M 3328 2828
Q 3544 3216 3844 3400
Q 4144 3584 4550 3584
Q 5097 3584 5394 3201
Q 5691 2819 5691 2113
L 5691 0
L 5113 0
L 5113 2094
Q 5113 2597 4934 2840
Q 4756 3084 4391 3084
Q 3944 3084 3684 2787
Q 3425 2491 3425 1978
L 3425 0
L 2847 0
L 2847 2094
Q 2847 2600 2669 2842
Q 2491 3084 2119 3084
Q 1678 3084 1418 2786
Q 1159 2488 1159 1978
L 1159 0
L 581 0
L 581 3500
L 1159 3500
L 1159 2956
Q 1356 3278 1631 3431
Q 1906 3584 2284 3584
Q 2666 3584 2933 3390
Q 3200 3197 3328 2828
z
" transform="scale(0.015625)"/>
      <path id="DejaVuSans-56" d="M 1831 0
L 50 4666
L 709 4666
L 2188 738
L 3669 4666
L 4325 4666
L 2547 0
L 1831 0
z
" transform="scale(0.015625)"/>
      <path id="DejaVuSans-5f" d="M 3263 -1063
L 3263 -1509
L -63 -1509
L -63 -1063
L 3263 -1063
z
" transform="scale(0.015625)"/>
      <path id="DejaVuSans-52" d="M 2841 2188
Q 3044 2119 3236 1894
Q 3428 1669 3622 1275
L 4263 0
L 3584 0
L 2988 1197
Q 2756 1666 2539 1819
Q 2322 1972 1947 1972
L 1259 1972
L 1259 0
L 628 0
L 628 4666
L 2053 4666
Q 2853 4666 3247 4331
Q 3641 3997 3641 3322
Q 3641 2881 3436 2590
Q 3231 2300 2841 2188
z
M 1259 4147
L 1259 2491
L 2053 2491
Q 2509 2491 2742 2702
Q 2975 2913 2975 3322
Q 2975 3731 2742 3939
Q 2509 4147 2053 4147
L 1259 4147
z
" transform="scale(0.015625)"/>
      <path id="DejaVuSans-45" d="M 628 4666
L 3578 4666
L 3578 4134
L 1259 4134
L 1259 2753
L 3481 2753
L 3481 2222
L 1259 2222
L 1259 531
L 3634 531
L 3634 0
L 628 0
L 628 4666
z
" transform="scale(0.015625)"/>
      <path id="DejaVuSans-46" d="M 628 4666
L 3309 4666
L 3309 4134
L 1259 4134
L 1259 2759
L 3109 2759
L 3109 2228
L 1259 2228
L 1259 0
L 628 0
L 628 4666
z
" transform="scale(0.015625)"/>
     </defs>
     <use xlink:href="#DejaVuSans-41"/>
     <use xlink:href="#DejaVuSans-75" transform="translate(68.408203 0)"/>
     <use xlink:href="#DejaVuSans-74" transform="translate(131.787109 0)"/>
     <use xlink:href="#DejaVuSans-6f" transform="translate(170.996094 0)"/>
     <use xlink:href="#DejaVuSans-6e" transform="translate(232.177734 0)"/>
     <use xlink:href="#DejaVuSans-6f" transform="translate(295.556641 0)"/>
     <use xlink:href="#DejaVuSans-6d" transform="translate(356.738281 0)"/>
     <use xlink:href="#DejaVuSans-6f" transform="translate(454.150391 0)"/>
     <use xlink:href="#DejaVuSans-75" transform="translate(515.332031 0)"/>
     <use xlink:href="#DejaVuSans-73" transform="translate(578.710938 0)"/>
     <use xlink:href="#DejaVuSans-20" transform="translate(630.810547 0)"/>
     <use xlink:href="#DejaVuSans-56" transform="translate(662.597656 0)"/>
     <use xlink:href="#DejaVuSans-5f" transform="translate(731.005859 0)"/>
     <use xlink:href="#DejaVuSans-52" transform="translate(781.005859 0)"/>
     <use xlink:href="#DejaVuSans-45" transform="translate(850.488281 0)"/>
     <use xlink:href="#DejaVuSans-46" transform="translate(913.671875 0)"/>
    </g>
   </g>
   <g id="text_3">
    <!-- 204 MHz DDR -->
    <g transform="translate(210.146289 86.684897) scale(0.115 -0.115)">
     <defs>
      <path id="DejaVuSans-32" d="M 1228 531
L 3431 531
L 3431 0
L 469 0
L 469 531
Q 828 903 1448 1529
Q 2069 2156 2228 2338
Q 2531 2678 2651 2914
Q 2772 3150 2772 3378
Q 2772 3750 2511 3984
Q 2250 4219 1831 4219
Q 1534 4219 1204 4116
Q 875 4013 500 3803
L 500 4441
Q 881 4594 1212 4672
Q 1544 4750 1819 4750
Q 2544 4750 2975 4387
Q 3406 4025 3406 3419
Q 3406 3131 3298 2873
Q 3191 2616 2906 2266
Q 2828 2175 2409 1742
Q 1991 1309 1228 531
z
" transform="scale(0.015625)"/>
      <path id="DejaVuSans-30" d="M 2034 4250
Q 1547 4250 1301 3770
Q 1056 3291 1056 2328
Q 1056 1369 1301 889
Q 1547 409 2034 409
Q 2525 409 2770 889
Q 3016 1369 3016 2328
Q 3016 3291 2770 3770
Q 2525 4250 2034 4250
z
M 2034 4750
Q 2819 4750 3233 4129
Q 3647 3509 3647 2328
Q 3647 1150 3233 529
Q 2819 -91 2034 -91
Q 1250 -91 836 529
Q 422 1150 422 2328
Q 422 3509 836 4129
Q 1250 4750 2034 4750
z
" transform="scale(0.015625)"/>
      <path id="DejaVuSans-34" d="M 2419 4116
L 825 1625
L 2419 1625
L 2419 4116
z
M 2253 4666
L 3047 4666
L 3047 1625
L 3713 1625
L 3713 1100
L 3047 1100
L 3047 0
L 2419 0
L 2419 1100
L 313 1100
L 313 1709
L 2253 4666
z
" transform="scale(0.015625)"/>
      <path id="DejaVuSans-4d" d="M 628 4666
L 1569 4666
L 2759 1491
L 3956 4666
L 4897 4666
L 4897 0
L 4281 0
L 4281 4097
L 3078 897
L 2444 897
L 1241 4097
L 1241 0
L 628 0
L 628 4666
z
" transform="scale(0.015625)"/>
      <path id="DejaVuSans-48" d="M 628 4666
L 1259 4666
L 1259 2753
L 3553 2753
L 3553 4666
L 4184 4666
L 4184 0
L 3553 0
L 3553 2222
L 1259 2222
L 1259 0
L 628 0
L 628 4666
z
" transform="scale(0.015625)"/>
      <path id="DejaVuSans-7a" d="M 353 3500
L 3084 3500
L 3084 2975
L 922 459
L 3084 459
L 3084 0
L 275 0
L 275 525
L 2438 3041
L 353 3041
L 353 3500
z
" transform="scale(0.015625)"/>
     </defs>
     <use xlink:href="#DejaVuSans-32"/>
     <use xlink:href="#DejaVuSans-30" transform="translate(63.623047 0)"/>
     <use xlink:href="#DejaVuSans-34" transform="translate(127.246094 0)"/>
     <use xlink:href="#DejaVuSans-20" transform="translate(190.869141 0)"/>
     <use xlink:href="#DejaVuSans-4d" transform="translate(222.65625 0)"/>
     <use xlink:href="#DejaVuSans-48" transform="translate(308.935547 0)"/>
     <use xlink:href="#DejaVuSans-7a" transform="translate(384.130859 0)"/>
     <use xlink:href="#DejaVuSans-20" transform="translate(436.621094 0)"/>
     <use xlink:href="#DejaVuSans-44" transform="translate(468.408203 0)"/>
     <use xlink:href="#DejaVuSans-44" transform="translate(545.410156 0)"/>
     <use xlink:href="#DejaVuSans-52" transform="translate(622.412109 0)"/>
    </g>
    <!-- 408 M decisions/s -->
    <g transform="translate(198.708281 99.562381) scale(0.115 -0.115)">
     <defs>
      <path id="DejaVuSans-38" d="M 2034 2216
Q 1584 2216 1326 1975
Q 1069 1734 1069 1313
Q 1069 891 1326 650
Q 1584 409 2034 409
Q 2484 409 2743 651
Q 3003 894 3003 1313
Q 3003 1734 2745 1975
Q 2488 2216 2034 2216
z
M 1403 2484
Q 997 2584 770 2862
Q 544 3141 544 3541
Q 544 4100 942 4425
Q 1341 4750 2034 4750
Q 2731 4750 3128 4425
Q 3525 4100 3525 3541
Q 3525 3141 3298 2862
Q 3072 2584 2669 2484
Q 3125 2378 3379 2068
Q 3634 1759 3634 1313
Q 3634 634 3220 271
Q 2806 -91 2034 -91
Q 1263 -91 848 271
Q 434 634 434 1313
Q 434 1759 690 2068
Q 947 2378 1403 2484
z
M 1172 3481
Q 1172 3119 1398 2916
Q 1625 2713 2034 2713
Q 2441 2713 2670 2916
Q 2900 3119 2900 3481
Q 2900 3844 2670 4047
Q 2441 4250 2034 4250
Q 1625 4250 1398 4047
Q 1172 3844 1172 3481
z
" transform="scale(0.015625)"/>
      <path id="DejaVuSans-63" d="M 3122 3366
L 3122 2828
Q 2878 2963 2633 3030
Q 2388 3097 2138 3097
Q 1578 3097 1268 2742
Q 959 2388 959 1747
Q 959 1106 1268 751
Q 1578 397 2138 397
Q 2388 397 2633 464
Q 2878 531 3122 666
L 3122 134
Q 2881 22 2623 -34
Q 2366 -91 2075 -91
Q 1284 -91 818 406
Q 353 903 353 1747
Q 353 2603 823 3093
Q 1294 3584 2113 3584
Q 2378 3584 2631 3529
Q 2884 3475 3122 3366
z
" transform="scale(0.015625)"/>
      <path id="DejaVuSans-2f" d="M 1625 4666
L 2156 4666
L 531 -594
L 0 -594
L 1625 4666
z
" transform="scale(0.015625)"/>
     </defs>
     <use xlink:href="#DejaVuSans-34"/>
     <use xlink:href="#DejaVuSans-30" transform="translate(63.623047 0)"/>
     <use xlink:href="#DejaVuSans-38" transform="translate(127.246094 0)"/>
     <use xlink:href="#DejaVuSans-20" transform="translate(190.869141 0)"/>
     <use xlink:href="#DejaVuSans-4d" transform="translate(222.65625 0)"/>
     <use xlink:href="#DejaVuSans-20" transform="translate(308.935547 0)"/>
     <use xlink:href="#DejaVuSans-64" transform="translate(340.722656 0)"/>
     <use xlink:href="#DejaVuSans-65" transform="translate(404.199219 0)"/>
     <use xlink:href="#DejaVuSans-63" transform="translate(465.722656 0)"/>
     <use xlink:href="#DejaVuSans-69" transform="translate(520.703125 0)"/>
     <use xlink:href="#DejaVuSans-73" transform="translate(548.486328 0)"/>
     <use xlink:href="#DejaVuSans-69" transform="translate(600.585938 0)"/>
     <use xlink:href="#DejaVuSans-6f" transform="translate(628.369141 0)"/>
     <use xlink:href="#DejaVuSans-6e" transform="translate(689.550781 0)"/>
     <use xlink:href="#DejaVuSans-73" transform="translate(752.929688 0)"/>
     <use xlink:href="#DejaVuSans-2f" transform="translate(805.029297 0)"/>
     <use xlink:href="#DejaVuSans-73" transform="translate(838.720703 0)"/>
    </g>
    <!-- Fixed I/Q lane order -->
    <g transform="translate(193.751602 112.439866) scale(0.115 -0.115)">
     <defs>
      <path id="DejaVuSans-78" d="M 3513 3500
L 2247 1797
L 3578 0
L 2900 0
L 1881 1375
L 863 0
L 184 0
L 1544 1831
L 300 3500
L 978 3500
L 1906 2253
L 2834 3500
L 3513 3500
z
" transform="scale(0.015625)"/>
      <path id="DejaVuSans-49" d="M 628 4666
L 1259 4666
L 1259 0
L 628 0
L 628 4666
z
" transform="scale(0.015625)"/>
      <path id="DejaVuSans-51" d="M 2522 4238
Q 1834 4238 1429 3725
Q 1025 3213 1025 2328
Q 1025 1447 1429 934
Q 1834 422 2522 422
Q 3209 422 3611 934
Q 4013 1447 4013 2328
Q 4013 3213 3611 3725
Q 3209 4238 2522 4238
z
M 3406 84
L 4238 -825
L 3475 -825
L 2784 -78
Q 2681 -84 2626 -87
Q 2572 -91 2522 -91
Q 1538 -91 948 567
Q 359 1225 359 2328
Q 359 3434 948 4092
Q 1538 4750 2522 4750
Q 3503 4750 4090 4092
Q 4678 3434 4678 2328
Q 4678 1516 4351 937
Q 4025 359 3406 84
z
" transform="scale(0.015625)"/>
     </defs>
     <use xlink:href="#DejaVuSans-46"/>
     <use xlink:href="#DejaVuSans-69" transform="translate(50.269531 0)"/>
     <use xlink:href="#DejaVuSans-78" transform="translate(78.052734 0)"/>
     <use xlink:href="#DejaVuSans-65" transform="translate(134.107422 0)"/>
     <use xlink:href="#DejaVuSans-64" transform="translate(195.630859 0)"/>
     <use xlink:href="#DejaVuSans-20" transform="translate(259.107422 0)"/>
     <use xlink:href="#DejaVuSans-49" transform="translate(290.894531 0)"/>
     <use xlink:href="#DejaVuSans-2f" transform="translate(320.386719 0)"/>
     <use xlink:href="#DejaVuSans-51" transform="translate(354.078125 0)"/>
     <use xlink:href="#DejaVuSans-20" transform="translate(432.789062 0)"/>
     <use xlink:href="#DejaVuSans-6c" transform="translate(464.576172 0)"/>
     <use xlink:href="#DejaVuSans-61" transform="translate(492.359375 0)"/>
     <use xlink:href="#DejaVuSans-6e" transform="translate(553.638672 0)"/>
     <use xlink:href="#DejaVuSans-65" transform="translate(617.017578 0)"/>
     <use xlink:href="#DejaVuSans-20" transform="translate(678.541016 0)"/>
     <use xlink:href="#DejaVuSans-6f" transform="translate(710.328125 0)"/>
     <use xlink:href="#DejaVuSans-72" transform="translate(771.509766 0)"/>
     <use xlink:href="#DejaVuSans-64" transform="translate(810.873047 0)"/>
     <use xlink:href="#DejaVuSans-65" transform="translate(874.349609 0)"/>
     <use xlink:href="#DejaVuSans-72" transform="translate(935.873047 0)"/>
    </g>
   </g>
   <g id="patch_8">
    <path d="M 165.439182 96.3891
Q 170.415286 96.3891 173.378928 96.3891
" style="fill: none; stroke: #24705a; stroke-width: 1.8; stroke-linecap: round"/>
    <path d="M 168.578928 93.9891
L 173.378928 96.3891
L 168.578928 98.7891
" style="fill: none; stroke: #24705a; stroke-width: 1.8; stroke-linecap: round"/>
   </g>
   <g id="patch_9">
    <path d="M 324.469182 96.3891
Q 336.418906 96.3891 346.356169 96.3891
" style="fill: none; stroke: #24705a; stroke-width: 1.8; stroke-linecap: round"/>
    <path d="M 341.556169 93.9891
L 346.356169 96.3891
L 341.556169 98.7891
" style="fill: none; stroke: #24705a; stroke-width: 1.8; stroke-linecap: round"/>
   </g>
   <g id="text_4">
    <!-- FULL-BAND IMAGE -->
    <g transform="translate(445.537656 86.684897) scale(0.115 -0.115)">
     <defs>
      <path id="DejaVuSans-55" d="M 556 4666
L 1191 4666
L 1191 1831
Q 1191 1081 1462 751
Q 1734 422 2344 422
Q 2950 422 3222 751
Q 3494 1081 3494 1831
L 3494 4666
L 4128 4666
L 4128 1753
Q 4128 841 3676 375
Q 3225 -91 2344 -91
Q 1459 -91 1007 375
Q 556 841 556 1753
L 556 4666
z
" transform="scale(0.015625)"/>
      <path id="DejaVuSans-4c" d="M 628 4666
L 1259 4666
L 1259 531
L 3531 531
L 3531 0
L 628 0
L 628 4666
z
" transform="scale(0.015625)"/>
      <path id="DejaVuSans-2d" d="M 313 2009
L 1997 2009
L 1997 1497
L 313 1497
L 313 2009
z
" transform="scale(0.015625)"/>
      <path id="DejaVuSans-42" d="M 1259 2228
L 1259 519
L 2272 519
Q 2781 519 3026 730
Q 3272 941 3272 1375
Q 3272 1813 3026 2020
Q 2781 2228 2272 2228
L 1259 2228
z
M 1259 4147
L 1259 2741
L 2194 2741
Q 2656 2741 2882 2914
Q 3109 3088 3109 3444
Q 3109 3797 2882 3972
Q 2656 4147 2194 4147
L 1259 4147
z
M 628 4666
L 2241 4666
Q 2963 4666 3353 4366
Q 3744 4066 3744 3513
Q 3744 3084 3544 2831
Q 3344 2578 2956 2516
Q 3422 2416 3680 2098
Q 3938 1781 3938 1306
Q 3938 681 3513 340
Q 3088 0 2303 0
L 628 0
L 628 4666
z
" transform="scale(0.015625)"/>
      <path id="DejaVuSans-4e" d="M 628 4666
L 1478 4666
L 3547 763
L 3547 4666
L 4159 4666
L 4159 0
L 3309 0
L 1241 3903
L 1241 0
L 628 0
L 628 4666
z
" transform="scale(0.015625)"/>
      <path id="DejaVuSans-47" d="M 3809 666
L 3809 1919
L 2778 1919
L 2778 2438
L 4434 2438
L 4434 434
Q 4069 175 3628 42
Q 3188 -91 2688 -91
Q 1594 -91 976 548
Q 359 1188 359 2328
Q 359 3472 976 4111
Q 1594 4750 2688 4750
Q 3144 4750 3555 4637
Q 3966 4525 4313 4306
L 4313 3634
Q 3963 3931 3569 4081
Q 3175 4231 2741 4231
Q 1884 4231 1454 3753
Q 1025 3275 1025 2328
Q 1025 1384 1454 906
Q 1884 428 2741 428
Q 3075 428 3337 486
Q 3600 544 3809 666
z
" transform="scale(0.015625)"/>
     </defs>
     <use xlink:href="#DejaVuSans-46"/>
     <use xlink:href="#DejaVuSans-55" transform="translate(57.519531 0)"/>
     <use xlink:href="#DejaVuSans-4c" transform="translate(130.712891 0)"/>
     <use xlink:href="#DejaVuSans-4c" transform="translate(186.425781 0)"/>
     <use xlink:href="#DejaVuSans-2d" transform="translate(240.388672 0)"/>
     <use xlink:href="#DejaVuSans-42" transform="translate(272.847656 0)"/>
     <use xlink:href="#DejaVuSans-41" transform="translate(341.451172 0)"/>
     <use xlink:href="#DejaVuSans-4e" transform="translate(409.859375 0)"/>
     <use xlink:href="#DejaVuSans-44" transform="translate(484.664062 0)"/>
     <use xlink:href="#DejaVuSans-20" transform="translate(561.666016 0)"/>
     <use xlink:href="#DejaVuSans-49" transform="translate(593.453125 0)"/>
     <use xlink:href="#DejaVuSans-4d" transform="translate(622.945312 0)"/>
     <use xlink:href="#DejaVuSans-41" transform="translate(709.224609 0)"/>
     <use xlink:href="#DejaVuSans-47" transform="translate(775.882812 0)"/>
     <use xlink:href="#DejaVuSans-45" transform="translate(853.373047 0)"/>
    </g>
    <!-- Raw bits / reversible E3 encoding -->
    <g transform="translate(402.424336 99.562381) scale(0.115 -0.115)">
     <defs>
      <path id="DejaVuSans-77" d="M 269 3500
L 844 3500
L 1563 769
L 2278 3500
L 2956 3500
L 3675 769
L 4391 3500
L 4966 3500
L 4050 0
L 3372 0
L 2619 2869
L 1863 0
L 1184 0
L 269 3500
z
" transform="scale(0.015625)"/>
      <path id="DejaVuSans-62" d="M 3116 1747
Q 3116 2381 2855 2742
Q 2594 3103 2138 3103
Q 1681 3103 1420 2742
Q 1159 2381 1159 1747
Q 1159 1113 1420 752
Q 1681 391 2138 391
Q 2594 391 2855 752
Q 3116 1113 3116 1747
z
M 1159 2969
Q 1341 3281 1617 3432
Q 1894 3584 2278 3584
Q 2916 3584 3314 3078
Q 3713 2572 3713 1747
Q 3713 922 3314 415
Q 2916 -91 2278 -91
Q 1894 -91 1617 61
Q 1341 213 1159 525
L 1159 0
L 581 0
L 581 4863
L 1159 4863
L 1159 2969
z
" transform="scale(0.015625)"/>
      <path id="DejaVuSans-76" d="M 191 3500
L 800 3500
L 1894 563
L 2988 3500
L 3597 3500
L 2284 0
L 1503 0
L 191 3500
z
" transform="scale(0.015625)"/>
      <path id="DejaVuSans-33" d="M 2597 2516
Q 3050 2419 3304 2112
Q 3559 1806 3559 1356
Q 3559 666 3084 287
Q 2609 -91 1734 -91
Q 1441 -91 1130 -33
Q 819 25 488 141
L 488 750
Q 750 597 1062 519
Q 1375 441 1716 441
Q 2309 441 2620 675
Q 2931 909 2931 1356
Q 2931 1769 2642 2001
Q 2353 2234 1838 2234
L 1294 2234
L 1294 2753
L 1863 2753
Q 2328 2753 2575 2939
Q 2822 3125 2822 3475
Q 2822 3834 2567 4026
Q 2313 4219 1838 4219
Q 1578 4219 1281 4162
Q 984 4106 628 3988
L 628 4550
Q 988 4650 1302 4700
Q 1616 4750 1894 4750
Q 2613 4750 3031 4423
Q 3450 4097 3450 3541
Q 3450 3153 3228 2886
Q 3006 2619 2597 2516
z
" transform="scale(0.015625)"/>
      <path id="DejaVuSans-67" d="M 2906 1791
Q 2906 2416 2648 2759
Q 2391 3103 1925 3103
Q 1463 3103 1205 2759
Q 947 2416 947 1791
Q 947 1169 1205 825
Q 1463 481 1925 481
Q 2391 481 2648 825
Q 2906 1169 2906 1791
z
M 3481 434
Q 3481 -459 3084 -895
Q 2688 -1331 1869 -1331
Q 1566 -1331 1297 -1286
Q 1028 -1241 775 -1147
L 775 -588
Q 1028 -725 1275 -790
Q 1522 -856 1778 -856
Q 2344 -856 2625 -561
Q 2906 -266 2906 331
L 2906 616
Q 2728 306 2450 153
Q 2172 0 1784 0
Q 1141 0 747 490
Q 353 981 353 1791
Q 353 2603 747 3093
Q 1141 3584 1784 3584
Q 2172 3584 2450 3431
Q 2728 3278 2906 2969
L 2906 3500
L 3481 3500
L 3481 434
z
" transform="scale(0.015625)"/>
     </defs>
     <use xlink:href="#DejaVuSans-52"/>
     <use xlink:href="#DejaVuSans-61" transform="translate(67.232422 0)"/>
     <use xlink:href="#DejaVuSans-77" transform="translate(128.511719 0)"/>
     <use xlink:href="#DejaVuSans-20" transform="translate(210.298828 0)"/>
     <use xlink:href="#DejaVuSans-62" transform="translate(242.085938 0)"/>
     <use xlink:href="#DejaVuSans-69" transform="translate(305.5625 0)"/>
     <use xlink:href="#DejaVuSans-74" transform="translate(333.345703 0)"/>
     <use xlink:href="#DejaVuSans-73" transform="translate(372.554688 0)"/>
     <use xlink:href="#DejaVuSans-20" transform="translate(424.654297 0)"/>
     <use xlink:href="#DejaVuSans-2f" transform="translate(456.441406 0)"/>
     <use xlink:href="#DejaVuSans-20" transform="translate(490.132812 0)"/>
     <use xlink:href="#DejaVuSans-72" transform="translate(521.919922 0)"/>
     <use xlink:href="#DejaVuSans-65" transform="translate(560.783203 0)"/>
     <use xlink:href="#DejaVuSans-76" transform="translate(622.306641 0)"/>
     <use xlink:href="#DejaVuSans-65" transform="translate(681.486328 0)"/>
     <use xlink:href="#DejaVuSans-72" transform="translate(743.009766 0)"/>
     <use xlink:href="#DejaVuSans-73" transform="translate(784.123047 0)"/>
     <use xlink:href="#DejaVuSans-69" transform="translate(836.222656 0)"/>
     <use xlink:href="#DejaVuSans-62" transform="translate(864.005859 0)"/>
     <use xlink:href="#DejaVuSans-6c" transform="translate(927.482422 0)"/>
     <use xlink:href="#DejaVuSans-65" transform="translate(955.265625 0)"/>
     <use xlink:href="#DejaVuSans-20" transform="translate(1016.789062 0)"/>
     <use xlink:href="#DejaVuSans-45" transform="translate(1048.576172 0)"/>
     <use xlink:href="#DejaVuSans-33" transform="translate(1111.759766 0)"/>
     <use xlink:href="#DejaVuSans-20" transform="translate(1175.382812 0)"/>
     <use xlink:href="#DejaVuSans-65" transform="translate(1207.169922 0)"/>
     <use xlink:href="#DejaVuSans-6e" transform="translate(1268.693359 0)"/>
     <use xlink:href="#DejaVuSans-63" transform="translate(1332.072266 0)"/>
     <use xlink:href="#DejaVuSans-6f" transform="translate(1387.052734 0)"/>
     <use xlink:href="#DejaVuSans-64" transform="translate(1448.234375 0)"/>
     <use xlink:href="#DejaVuSans-69" transform="translate(1511.710938 0)"/>
     <use xlink:href="#DejaVuSans-6e" transform="translate(1539.494141 0)"/>
     <use xlink:href="#DejaVuSans-67" transform="translate(1602.873047 0)"/>
    </g>
    <!-- Matched four-tap interstage F2 path -->
    <g transform="translate(394.113789 112.439866) scale(0.115 -0.115)">
     <use xlink:href="#DejaVuSans-4d"/>
     <use xlink:href="#DejaVuSans-61" transform="translate(86.279297 0)"/>
     <use xlink:href="#DejaVuSans-74" transform="translate(147.558594 0)"/>
     <use xlink:href="#DejaVuSans-63" transform="translate(186.767578 0)"/>
     <use xlink:href="#DejaVuSans-68" transform="translate(241.748047 0)"/>
     <use xlink:href="#DejaVuSans-65" transform="translate(305.126953 0)"/>
     <use xlink:href="#DejaVuSans-64" transform="translate(366.650391 0)"/>
     <use xlink:href="#DejaVuSans-20" transform="translate(430.126953 0)"/>
     <use xlink:href="#DejaVuSans-66" transform="translate(461.914062 0)"/>
     <use xlink:href="#DejaVuSans-6f" transform="translate(497.119141 0)"/>
     <use xlink:href="#DejaVuSans-75" transform="translate(558.300781 0)"/>
     <use xlink:href="#DejaVuSans-72" transform="translate(621.679688 0)"/>
     <use xlink:href="#DejaVuSans-2d" transform="translate(656.417969 0)"/>
     <use xlink:href="#DejaVuSans-74" transform="translate(692.501953 0)"/>
     <use xlink:href="#DejaVuSans-61" transform="translate(731.710938 0)"/>
     <use xlink:href="#DejaVuSans-70" transform="translate(792.990234 0)"/>
     <use xlink:href="#DejaVuSans-20" transform="translate(856.466797 0)"/>
     <use xlink:href="#DejaVuSans-69" transform="translate(888.253906 0)"/>
     <use xlink:href="#DejaVuSans-6e" transform="translate(916.037109 0)"/>
     <use xlink:href="#DejaVuSans-74" transform="translate(979.416016 0)"/>
     <use xlink:href="#DejaVuSans-65" transform="translate(1018.625 0)"/>
     <use xlink:href="#DejaVuSans-72" transform="translate(1080.148438 0)"/>
     <use xlink:href="#DejaVuSans-73" transform="translate(1121.261719 0)"/>
     <use xlink:href="#DejaVuSans-74" transform="translate(1173.361328 0)"/>
     <use xlink:href="#DejaVuSans-61" transform="translate(1212.570312 0)"/>
     <use xlink:href="#DejaVuSans-67" transform="translate(1273.849609 0)"/>
     <use xlink:href="#DejaVuSans-65" transform="translate(1337.326172 0)"/>
     <use xlink:href="#DejaVuSans-20" transform="translate(1398.849609 0)"/>
     <use xlink:href="#DejaVuSans-46" transform="translate(1430.636719 0)"/>
     <use xlink:href="#DejaVuSans-32" transform="translate(1488.15625 0)"/>
     <use xlink:href="#DejaVuSans-20" transform="translate(1551.779297 0)"/>
     <use xlink:href="#DejaVuSans-70" transform="translate(1583.566406 0)"/>
     <use xlink:href="#DejaVuSans-61" transform="translate(1647.042969 0)"/>
     <use xlink:href="#DejaVuSans-74" transform="translate(1708.322266 0)"/>
     <use xlink:href="#DejaVuSans-68" transform="translate(1747.53125 0)"/>
    </g>
   </g>
   <g id="text_5">
    <!-- Host FFT + native-bin spectrum explorer -->
    <g transform="translate(381.288594 201.231639) scale(0.115 -0.115)">
     <defs>
      <path id="DejaVuSans-54" d="M -19 4666
L 3928 4666
L 3928 4134
L 2272 4134
L 2272 0
L 1638 0
L 1638 4134
L -19 4134
L -19 4666
z
" transform="scale(0.015625)"/>
     </defs>
     <use xlink:href="#DejaVuSans-48"/>
     <use xlink:href="#DejaVuSans-6f" transform="translate(75.195312 0)"/>
     <use xlink:href="#DejaVuSans-73" transform="translate(136.376953 0)"/>
     <use xlink:href="#DejaVuSans-74" transform="translate(188.476562 0)"/>
     <use xlink:href="#DejaVuSans-20" transform="translate(227.685547 0)"/>
     <use xlink:href="#DejaVuSans-46" transform="translate(259.472656 0)"/>
     <use xlink:href="#DejaVuSans-46" transform="translate(316.992188 0)"/>
     <use xlink:href="#DejaVuSans-54" transform="translate(372.761719 0)"/>
     <use xlink:href="#DejaVuSans-20" transform="translate(433.845703 0)"/>
     <use xlink:href="#DejaVuSans-2b" transform="translate(465.632812 0)"/>
     <use xlink:href="#DejaVuSans-20" transform="translate(549.421875 0)"/>
     <use xlink:href="#DejaVuSans-6e" transform="translate(581.208984 0)"/>
     <use xlink:href="#DejaVuSans-61" transform="translate(644.587891 0)"/>
     <use xlink:href="#DejaVuSans-74" transform="translate(705.867188 0)"/>
     <use xlink:href="#DejaVuSans-69" transform="translate(745.076172 0)"/>
     <use xlink:href="#DejaVuSans-76" transform="translate(772.859375 0)"/>
     <use xlink:href="#DejaVuSans-65" transform="translate(832.039062 0)"/>
     <use xlink:href="#DejaVuSans-2d" transform="translate(893.5625 0)"/>
     <use xlink:href="#DejaVuSans-62" transform="translate(929.646484 0)"/>
     <use xlink:href="#DejaVuSans-69" transform="translate(993.123047 0)"/>
     <use xlink:href="#DejaVuSans-6e" transform="translate(1020.90625 0)"/>
     <use xlink:href="#DejaVuSans-20" transform="translate(1084.285156 0)"/>
     <use xlink:href="#DejaVuSans-73" transform="translate(1116.072266 0)"/>
     <use xlink:href="#DejaVuSans-70" transform="translate(1168.171875 0)"/>
     <use xlink:href="#DejaVuSans-65" transform="translate(1231.648438 0)"/>
     <use xlink:href="#DejaVuSans-63" transform="translate(1293.171875 0)"/>
     <use xlink:href="#DejaVuSans-74" transform="translate(1348.152344 0)"/>
     <use xlink:href="#DejaVuSans-72" transform="translate(1387.361328 0)"/>
     <use xlink:href="#DejaVuSans-75" transform="translate(1428.474609 0)"/>
     <use xlink:href="#DejaVuSans-6d" transform="translate(1491.853516 0)"/>
     <use xlink:href="#DejaVuSans-20" transform="translate(1589.265625 0)"/>
     <use xlink:href="#DejaVuSans-65" transform="translate(1621.052734 0)"/>
     <use xlink:href="#DejaVuSans-78" transform="translate(1680.826172 0)"/>
     <use xlink:href="#DejaVuSans-70" transform="translate(1740.005859 0)"/>
     <use xlink:href="#DejaVuSans-6c" transform="translate(1803.482422 0)"/>
     <use xlink:href="#DejaVuSans-6f" transform="translate(1831.265625 0)"/>
     <use xlink:href="#DejaVuSans-72" transform="translate(1892.447266 0)"/>
     <use xlink:href="#DejaVuSans-65" transform="translate(1931.310547 0)"/>
     <use xlink:href="#DejaVuSans-72" transform="translate(1992.833984 0)"/>
    </g>
    <!-- Preserved RF records; separate capture intervals -->
    <g transform="translate(357.563555 214.109123) scale(0.115 -0.115)">
     <defs>
      <path id="DejaVuSans-50" d="M 1259 4147
L 1259 2394
L 2053 2394
Q 2494 2394 2734 2622
Q 2975 2850 2975 3272
Q 2975 3691 2734 3919
Q 2494 4147 2053 4147
L 1259 4147
z
M 628 4666
L 2053 4666
Q 2838 4666 3239 4311
Q 3641 3956 3641 3272
Q 3641 2581 3239 2228
Q 2838 1875 2053 1875
L 1259 1875
L 1259 0
L 628 0
L 628 4666
z
" transform="scale(0.015625)"/>
      <path id="DejaVuSans-3b" d="M 750 3309
L 1409 3309
L 1409 2516
L 750 2516
L 750 3309
z
M 750 794
L 1409 794
L 1409 256
L 897 -744
L 494 -744
L 750 256
L 750 794
z
" transform="scale(0.015625)"/>
     </defs>
     <use xlink:href="#DejaVuSans-50"/>
     <use xlink:href="#DejaVuSans-72" transform="translate(58.552734 0)"/>
     <use xlink:href="#DejaVuSans-65" transform="translate(97.416016 0)"/>
     <use xlink:href="#DejaVuSans-73" transform="translate(158.939453 0)"/>
     <use xlink:href="#DejaVuSans-65" transform="translate(211.039062 0)"/>
     <use xlink:href="#DejaVuSans-72" transform="translate(272.5625 0)"/>
     <use xlink:href="#DejaVuSans-76" transform="translate(313.675781 0)"/>
     <use xlink:href="#DejaVuSans-65" transform="translate(372.855469 0)"/>
     <use xlink:href="#DejaVuSans-64" transform="translate(434.378906 0)"/>
     <use xlink:href="#DejaVuSans-20" transform="translate(497.855469 0)"/>
     <use xlink:href="#DejaVuSans-52" transform="translate(529.642578 0)"/>
     <use xlink:href="#DejaVuSans-46" transform="translate(599.125 0)"/>
     <use xlink:href="#DejaVuSans-20" transform="translate(656.644531 0)"/>
     <use xlink:href="#DejaVuSans-72" transform="translate(688.431641 0)"/>
     <use xlink:href="#DejaVuSans-65" transform="translate(727.294922 0)"/>
     <use xlink:href="#DejaVuSans-63" transform="translate(788.818359 0)"/>
     <use xlink:href="#DejaVuSans-6f" transform="translate(843.798828 0)"/>
     <use xlink:href="#DejaVuSans-72" transform="translate(904.980469 0)"/>
     <use xlink:href="#DejaVuSans-64" transform="translate(944.34375 0)"/>
     <use xlink:href="#DejaVuSans-73" transform="translate(1007.820312 0)"/>
     <use xlink:href="#DejaVuSans-3b" transform="translate(1059.919922 0)"/>
     <use xlink:href="#DejaVuSans-20" transform="translate(1093.611328 0)"/>
     <use xlink:href="#DejaVuSans-73" transform="translate(1125.398438 0)"/>
     <use xlink:href="#DejaVuSans-65" transform="translate(1177.498047 0)"/>
     <use xlink:href="#DejaVuSans-70" transform="translate(1239.021484 0)"/>
     <use xlink:href="#DejaVuSans-61" transform="translate(1302.498047 0)"/>
     <use xlink:href="#DejaVuSans-72" transform="translate(1363.777344 0)"/>
     <use xlink:href="#DejaVuSans-61" transform="translate(1404.890625 0)"/>
     <use xlink:href="#DejaVuSans-74" transform="translate(1466.169922 0)"/>
     <use xlink:href="#DejaVuSans-65" transform="translate(1505.378906 0)"/>
     <use xlink:href="#DejaVuSans-20" transform="translate(1566.902344 0)"/>
     <use xlink:href="#DejaVuSans-63" transform="translate(1598.689453 0)"/>
     <use xlink:href="#DejaVuSans-61" transform="translate(1653.669922 0)"/>
     <use xlink:href="#DejaVuSans-70" transform="translate(1714.949219 0)"/>
     <use xlink:href="#DejaVuSans-74" transform="translate(1778.425781 0)"/>
     <use xlink:href="#DejaVuSans-75" transform="translate(1817.634766 0)"/>
     <use xlink:href="#DejaVuSans-72" transform="translate(1881.013672 0)"/>
     <use xlink:href="#DejaVuSans-65" transform="translate(1919.876953 0)"/>
     <use xlink:href="#DejaVuSans-20" transform="translate(1981.400391 0)"/>
     <use xlink:href="#DejaVuSans-69" transform="translate(2013.1875 0)"/>
     <use xlink:href="#DejaVuSans-6e" transform="translate(2040.970703 0)"/>
     <use xlink:href="#DejaVuSans-74" transform="translate(2104.349609 0)"/>
     <use xlink:href="#DejaVuSans-65" transform="translate(2143.558594 0)"/>
     <use xlink:href="#DejaVuSans-72" transform="translate(2205.082031 0)"/>
     <use xlink:href="#DejaVuSans-76" transform="translate(2246.195312 0)"/>
     <use xlink:href="#DejaVuSans-61" transform="translate(2305.375 0)"/>
     <use xlink:href="#DejaVuSans-6c" transform="translate(2366.654297 0)"/>
     <use xlink:href="#DejaVuSans-73" transform="translate(2394.4375 0)"/>
    </g>
   </g>
   <g id="patch_10">
    <path d="M 498.24 136.229841
Q 498.24 151.794918 498.24 165.347535
" style="fill: none; stroke: #24705a; stroke-width: 1.8; stroke-linecap: round"/>
    <path d="M 500.64 160.547535
L 498.24 165.347535
L 495.84 160.547535
" style="fill: none; stroke: #24705a; stroke-width: 1.8; stroke-linecap: round"/>
   </g>
   <g id="patch_11">
    <path d="M 249.93 136.227449
Q 249.93 200.442239 249.93 262.644567
" style="fill: none; stroke: #24705a; stroke-width: 1.8; stroke-linecap: round"/>
    <path d="M 252.33 257.844567
L 249.93 262.644567
L 247.53 257.844567
" style="fill: none; stroke: #24705a; stroke-width: 1.8; stroke-linecap: round"/>
   </g>
   <g id="text_6">
    <!-- LISTENING IMAGE · 106.5 MHz -->
    <g transform="translate(83.483984 296.144147) scale(0.115 -0.115)">
     <defs>
      <path id="DejaVuSans-53" d="M 3425 4513
L 3425 3897
Q 3066 4069 2747 4153
Q 2428 4238 2131 4238
Q 1616 4238 1336 4038
Q 1056 3838 1056 3469
Q 1056 3159 1242 3001
Q 1428 2844 1947 2747
L 2328 2669
Q 3034 2534 3370 2195
Q 3706 1856 3706 1288
Q 3706 609 3251 259
Q 2797 -91 1919 -91
Q 1588 -91 1214 -16
Q 841 59 441 206
L 441 856
Q 825 641 1194 531
Q 1563 422 1919 422
Q 2459 422 2753 634
Q 3047 847 3047 1241
Q 3047 1584 2836 1778
Q 2625 1972 2144 2069
L 1759 2144
Q 1053 2284 737 2584
Q 422 2884 422 3419
Q 422 4038 858 4394
Q 1294 4750 2059 4750
Q 2388 4750 2728 4690
Q 3069 4631 3425 4513
z
" transform="scale(0.015625)"/>
      <path id="DejaVuSans-b7" d="M 684 2619
L 1344 2619
L 1344 1825
L 684 1825
L 684 2619
z
" transform="scale(0.015625)"/>
      <path id="DejaVuSans-31" d="M 794 531
L 1825 531
L 1825 4091
L 703 3866
L 703 4441
L 1819 4666
L 2450 4666
L 2450 531
L 3481 531
L 3481 0
L 794 0
L 794 531
z
" transform="scale(0.015625)"/>
      <path id="DejaVuSans-36" d="M 2113 2584
Q 1688 2584 1439 2293
Q 1191 2003 1191 1497
Q 1191 994 1439 701
Q 1688 409 2113 409
Q 2538 409 2786 701
Q 3034 994 3034 1497
Q 3034 2003 2786 2293
Q 2538 2584 2113 2584
z
M 3366 4563
L 3366 3988
Q 3128 4100 2886 4159
Q 2644 4219 2406 4219
Q 1781 4219 1451 3797
Q 1122 3375 1075 2522
Q 1259 2794 1537 2939
Q 1816 3084 2150 3084
Q 2853 3084 3261 2657
Q 3669 2231 3669 1497
Q 3669 778 3244 343
Q 2819 -91 2113 -91
Q 1303 -91 875 529
Q 447 1150 447 2328
Q 447 3434 972 4092
Q 1497 4750 2381 4750
Q 2619 4750 2861 4703
Q 3103 4656 3366 4563
z
" transform="scale(0.015625)"/>
      <path id="DejaVuSans-2e" d="M 684 794
L 1344 794
L 1344 0
L 684 0
L 684 794
z
" transform="scale(0.015625)"/>
      <path id="DejaVuSans-35" d="M 691 4666
L 3169 4666
L 3169 4134
L 1269 4134
L 1269 2991
Q 1406 3038 1543 3061
Q 1681 3084 1819 3084
Q 2600 3084 3056 2656
Q 3513 2228 3513 1497
Q 3513 744 3044 326
Q 2575 -91 1722 -91
Q 1428 -91 1123 -41
Q 819 9 494 109
L 494 744
Q 775 591 1075 516
Q 1375 441 1709 441
Q 2250 441 2565 725
Q 2881 1009 2881 1497
Q 2881 1984 2565 2268
Q 2250 2553 1709 2553
Q 1456 2553 1204 2497
Q 953 2441 691 2322
L 691 4666
z
" transform="scale(0.015625)"/>
     </defs>
     <use xlink:href="#DejaVuSans-4c"/>
     <use xlink:href="#DejaVuSans-49" transform="translate(55.712891 0)"/>
     <use xlink:href="#DejaVuSans-53" transform="translate(85.205078 0)"/>
     <use xlink:href="#DejaVuSans-54" transform="translate(148.681641 0)"/>
     <use xlink:href="#DejaVuSans-45" transform="translate(209.765625 0)"/>
     <use xlink:href="#DejaVuSans-4e" transform="translate(272.949219 0)"/>
     <use xlink:href="#DejaVuSans-49" transform="translate(347.753906 0)"/>
     <use xlink:href="#DejaVuSans-4e" transform="translate(377.246094 0)"/>
     <use xlink:href="#DejaVuSans-47" transform="translate(452.050781 0)"/>
     <use xlink:href="#DejaVuSans-20" transform="translate(529.541016 0)"/>
     <use xlink:href="#DejaVuSans-49" transform="translate(561.328125 0)"/>
     <use xlink:href="#DejaVuSans-4d" transform="translate(590.820312 0)"/>
     <use xlink:href="#DejaVuSans-41" transform="translate(677.099609 0)"/>
     <use xlink:href="#DejaVuSans-47" transform="translate(743.757812 0)"/>
     <use xlink:href="#DejaVuSans-45" transform="translate(821.248047 0)"/>
     <use xlink:href="#DejaVuSans-20" transform="translate(884.431641 0)"/>
     <use xlink:href="#DejaVuSans-b7" transform="translate(916.21875 0)"/>
     <use xlink:href="#DejaVuSans-20" transform="translate(948.005859 0)"/>
     <use xlink:href="#DejaVuSans-31" transform="translate(979.792969 0)"/>
     <use xlink:href="#DejaVuSans-30" transform="translate(1043.416016 0)"/>
     <use xlink:href="#DejaVuSans-36" transform="translate(1107.039062 0)"/>
     <use xlink:href="#DejaVuSans-2e" transform="translate(1170.662109 0)"/>
     <use xlink:href="#DejaVuSans-35" transform="translate(1202.449219 0)"/>
     <use xlink:href="#DejaVuSans-20" transform="translate(1266.072266 0)"/>
     <use xlink:href="#DejaVuSans-4d" transform="translate(1297.859375 0)"/>
     <use xlink:href="#DejaVuSans-48" transform="translate(1384.138672 0)"/>
     <use xlink:href="#DejaVuSans-7a" transform="translate(1459.333984 0)"/>
    </g>
    <!-- Matched 16-decision integration → 4 DDS products -->
    <g transform="translate(23.947227 309.021631) scale(0.115 -0.115)">
     <defs>
      <path id="DejaVuSans-2192" d="M 5050 2147
L 5050 1866
L 3822 638
L 3447 1013
L 4175 1741
L 366 1741
L 366 2272
L 4175 2272
L 3447 3000
L 3822 3375
L 5050 2147
z
" transform="scale(0.015625)"/>
     </defs>
     <use xlink:href="#DejaVuSans-4d"/>
     <use xlink:href="#DejaVuSans-61" transform="translate(86.279297 0)"/>
     <use xlink:href="#DejaVuSans-74" transform="translate(147.558594 0)"/>
     <use xlink:href="#DejaVuSans-63" transform="translate(186.767578 0)"/>
     <use xlink:href="#DejaVuSans-68" transform="translate(241.748047 0)"/>
     <use xlink:href="#DejaVuSans-65" transform="translate(305.126953 0)"/>
     <use xlink:href="#DejaVuSans-64" transform="translate(366.650391 0)"/>
     <use xlink:href="#DejaVuSans-20" transform="translate(430.126953 0)"/>
     <use xlink:href="#DejaVuSans-31" transform="translate(461.914062 0)"/>
     <use xlink:href="#DejaVuSans-36" transform="translate(525.537109 0)"/>
     <use xlink:href="#DejaVuSans-2d" transform="translate(589.160156 0)"/>
     <use xlink:href="#DejaVuSans-64" transform="translate(625.244141 0)"/>
     <use xlink:href="#DejaVuSans-65" transform="translate(688.720703 0)"/>
     <use xlink:href="#DejaVuSans-63" transform="translate(750.244141 0)"/>
     <use xlink:href="#DejaVuSans-69" transform="translate(805.224609 0)"/>
     <use xlink:href="#DejaVuSans-73" transform="translate(833.007812 0)"/>
     <use xlink:href="#DejaVuSans-69" transform="translate(885.107422 0)"/>
     <use xlink:href="#DejaVuSans-6f" transform="translate(912.890625 0)"/>
     <use xlink:href="#DejaVuSans-6e" transform="translate(974.072266 0)"/>
     <use xlink:href="#DejaVuSans-20" transform="translate(1037.451172 0)"/>
     <use xlink:href="#DejaVuSans-69" transform="translate(1069.238281 0)"/>
     <use xlink:href="#DejaVuSans-6e" transform="translate(1097.021484 0)"/>
     <use xlink:href="#DejaVuSans-74" transform="translate(1160.400391 0)"/>
     <use xlink:href="#DejaVuSans-65" transform="translate(1199.609375 0)"/>
     <use xlink:href="#DejaVuSans-67" transform="translate(1261.132812 0)"/>
     <use xlink:href="#DejaVuSans-72" transform="translate(1324.609375 0)"/>
     <use xlink:href="#DejaVuSans-61" transform="translate(1365.722656 0)"/>
     <use xlink:href="#DejaVuSans-74" transform="translate(1427.001953 0)"/>
     <use xlink:href="#DejaVuSans-69" transform="translate(1466.210938 0)"/>
     <use xlink:href="#DejaVuSans-6f" transform="translate(1493.994141 0)"/>
     <use xlink:href="#DejaVuSans-6e" transform="translate(1555.175781 0)"/>
     <use xlink:href="#DejaVuSans-20" transform="translate(1618.554688 0)"/>
     <use xlink:href="#DejaVuSans-2192" transform="translate(1650.341797 0)"/>
     <use xlink:href="#DejaVuSans-20" transform="translate(1734.130859 0)"/>
     <use xlink:href="#DejaVuSans-34" transform="translate(1765.917969 0)"/>
     <use xlink:href="#DejaVuSans-20" transform="translate(1829.541016 0)"/>
     <use xlink:href="#DejaVuSans-44" transform="translate(1861.328125 0)"/>
     <use xlink:href="#DejaVuSans-44" transform="translate(1938.330078 0)"/>
     <use xlink:href="#DejaVuSans-53" transform="translate(2015.332031 0)"/>
     <use xlink:href="#DejaVuSans-20" transform="translate(2078.808594 0)"/>
     <use xlink:href="#DejaVuSans-70" transform="translate(2110.595703 0)"/>
     <use xlink:href="#DejaVuSans-72" transform="translate(2174.072266 0)"/>
     <use xlink:href="#DejaVuSans-6f" transform="translate(2212.935547 0)"/>
     <use xlink:href="#DejaVuSans-64" transform="translate(2274.117188 0)"/>
     <use xlink:href="#DejaVuSans-75" transform="translate(2337.59375 0)"/>
     <use xlink:href="#DejaVuSans-63" transform="translate(2400.972656 0)"/>
     <use xlink:href="#DejaVuSans-74" transform="translate(2455.953125 0)"/>
     <use xlink:href="#DejaVuSans-73" transform="translate(2495.162109 0)"/>
    </g>
    <!-- Continuous CIC3 / 64 → signed 32-bit I and Q -->
    <g transform="translate(41.026523 321.899116) scale(0.115 -0.115)">
     <defs>
      <path id="DejaVuSans-43" d="M 4122 4306
L 4122 3641
Q 3803 3938 3442 4084
Q 3081 4231 2675 4231
Q 1875 4231 1450 3742
Q 1025 3253 1025 2328
Q 1025 1406 1450 917
Q 1875 428 2675 428
Q 3081 428 3442 575
Q 3803 722 4122 1019
L 4122 359
Q 3791 134 3420 21
Q 3050 -91 2638 -91
Q 1578 -91 968 557
Q 359 1206 359 2328
Q 359 3453 968 4101
Q 1578 4750 2638 4750
Q 3056 4750 3426 4639
Q 3797 4528 4122 4306
z
" transform="scale(0.015625)"/>
     </defs>
     <use xlink:href="#DejaVuSans-43"/>
     <use xlink:href="#DejaVuSans-6f" transform="translate(69.824219 0)"/>
     <use xlink:href="#DejaVuSans-6e" transform="translate(131.005859 0)"/>
     <use xlink:href="#DejaVuSans-74" transform="translate(194.384766 0)"/>
     <use xlink:href="#DejaVuSans-69" transform="translate(233.59375 0)"/>
     <use xlink:href="#DejaVuSans-6e" transform="translate(261.376953 0)"/>
     <use xlink:href="#DejaVuSans-75" transform="translate(324.755859 0)"/>
     <use xlink:href="#DejaVuSans-6f" transform="translate(388.134766 0)"/>
     <use xlink:href="#DejaVuSans-75" transform="translate(449.316406 0)"/>
     <use xlink:href="#DejaVuSans-73" transform="translate(512.695312 0)"/>
     <use xlink:href="#DejaVuSans-20" transform="translate(564.794922 0)"/>
     <use xlink:href="#DejaVuSans-43" transform="translate(596.582031 0)"/>
     <use xlink:href="#DejaVuSans-49" transform="translate(666.40625 0)"/>
     <use xlink:href="#DejaVuSans-43" transform="translate(695.898438 0)"/>
     <use xlink:href="#DejaVuSans-33" transform="translate(765.722656 0)"/>
     <use xlink:href="#DejaVuSans-20" transform="translate(829.345703 0)"/>
     <use xlink:href="#DejaVuSans-2f" transform="translate(861.132812 0)"/>
     <use xlink:href="#DejaVuSans-20" transform="translate(894.824219 0)"/>
     <use xlink:href="#DejaVuSans-36" transform="translate(926.611328 0)"/>
     <use xlink:href="#DejaVuSans-34" transform="translate(990.234375 0)"/>
     <use xlink:href="#DejaVuSans-20" transform="translate(1053.857422 0)"/>
     <use xlink:href="#DejaVuSans-2192" transform="translate(1085.644531 0)"/>
     <use xlink:href="#DejaVuSans-20" transform="translate(1169.433594 0)"/>
     <use xlink:href="#DejaVuSans-73" transform="translate(1201.220703 0)"/>
     <use xlink:href="#DejaVuSans-69" transform="translate(1253.320312 0)"/>
     <use xlink:href="#DejaVuSans-67" transform="translate(1281.103516 0)"/>
     <use xlink:href="#DejaVuSans-6e" transform="translate(1344.580078 0)"/>
     <use xlink:href="#DejaVuSans-65" transform="translate(1407.958984 0)"/>
     <use xlink:href="#DejaVuSans-64" transform="translate(1469.482422 0)"/>
     <use xlink:href="#DejaVuSans-20" transform="translate(1532.958984 0)"/>
     <use xlink:href="#DejaVuSans-33" transform="translate(1564.746094 0)"/>
     <use xlink:href="#DejaVuSans-32" transform="translate(1628.369141 0)"/>
     <use xlink:href="#DejaVuSans-2d" transform="translate(1691.992188 0)"/>
     <use xlink:href="#DejaVuSans-62" transform="translate(1728.076172 0)"/>
     <use xlink:href="#DejaVuSans-69" transform="translate(1791.552734 0)"/>
     <use xlink:href="#DejaVuSans-74" transform="translate(1819.335938 0)"/>
     <use xlink:href="#DejaVuSans-20" transform="translate(1858.544922 0)"/>
     <use xlink:href="#DejaVuSans-49" transform="translate(1890.332031 0)"/>
     <use xlink:href="#DejaVuSans-20" transform="translate(1919.824219 0)"/>
     <use xlink:href="#DejaVuSans-61" transform="translate(1951.611328 0)"/>
     <use xlink:href="#DejaVuSans-6e" transform="translate(2012.890625 0)"/>
     <use xlink:href="#DejaVuSans-64" transform="translate(2076.269531 0)"/>
     <use xlink:href="#DejaVuSans-20" transform="translate(2139.746094 0)"/>
     <use xlink:href="#DejaVuSans-51" transform="translate(2171.533203 0)"/>
    </g>
   </g>
   <g id="text_7">
    <!-- 398,437.5 complex samples/s → RAM → USB -->
    <g transform="translate(370.708594 296.144147) scale(0.115 -0.115)">
     <defs>
      <path id="DejaVuSans-39" d="M 703 97
L 703 672
Q 941 559 1184 500
Q 1428 441 1663 441
Q 2288 441 2617 861
Q 2947 1281 2994 2138
Q 2813 1869 2534 1725
Q 2256 1581 1919 1581
Q 1219 1581 811 2004
Q 403 2428 403 3163
Q 403 3881 828 4315
Q 1253 4750 1959 4750
Q 2769 4750 3195 4129
Q 3622 3509 3622 2328
Q 3622 1225 3098 567
Q 2575 -91 1691 -91
Q 1453 -91 1209 -44
Q 966 3 703 97
z
M 1959 2075
Q 2384 2075 2632 2365
Q 2881 2656 2881 3163
Q 2881 3666 2632 3958
Q 2384 4250 1959 4250
Q 1534 4250 1286 3958
Q 1038 3666 1038 3163
Q 1038 2656 1286 2365
Q 1534 2075 1959 2075
z
" transform="scale(0.015625)"/>
      <path id="DejaVuSans-2c" d="M 750 794
L 1409 794
L 1409 256
L 897 -744
L 494 -744
L 750 256
L 750 794
z
" transform="scale(0.015625)"/>
      <path id="DejaVuSans-37" d="M 525 4666
L 3525 4666
L 3525 4397
L 1831 0
L 1172 0
L 2766 4134
L 525 4134
L 525 4666
z
" transform="scale(0.015625)"/>
     </defs>
     <use xlink:href="#DejaVuSans-33"/>
     <use xlink:href="#DejaVuSans-39" transform="translate(63.623047 0)"/>
     <use xlink:href="#DejaVuSans-38" transform="translate(127.246094 0)"/>
     <use xlink:href="#DejaVuSans-2c" transform="translate(190.869141 0)"/>
     <use xlink:href="#DejaVuSans-34" transform="translate(222.65625 0)"/>
     <use xlink:href="#DejaVuSans-33" transform="translate(286.279297 0)"/>
     <use xlink:href="#DejaVuSans-37" transform="translate(349.902344 0)"/>
     <use xlink:href="#DejaVuSans-2e" transform="translate(413.525391 0)"/>
     <use xlink:href="#DejaVuSans-35" transform="translate(445.3125 0)"/>
     <use xlink:href="#DejaVuSans-20" transform="translate(508.935547 0)"/>
     <use xlink:href="#DejaVuSans-63" transform="translate(540.722656 0)"/>
     <use xlink:href="#DejaVuSans-6f" transform="translate(595.703125 0)"/>
     <use xlink:href="#DejaVuSans-6d" transform="translate(656.884766 0)"/>
     <use xlink:href="#DejaVuSans-70" transform="translate(754.296875 0)"/>
     <use xlink:href="#DejaVuSans-6c" transform="translate(817.773438 0)"/>
     <use xlink:href="#DejaVuSans-65" transform="translate(845.556641 0)"/>
     <use xlink:href="#DejaVuSans-78" transform="translate(905.330078 0)"/>
     <use xlink:href="#DejaVuSans-20" transform="translate(964.509766 0)"/>
     <use xlink:href="#DejaVuSans-73" transform="translate(996.296875 0)"/>
     <use xlink:href="#DejaVuSans-61" transform="translate(1048.396484 0)"/>
     <use xlink:href="#DejaVuSans-6d" transform="translate(1109.675781 0)"/>
     <use xlink:href="#DejaVuSans-70" transform="translate(1207.087891 0)"/>
     <use xlink:href="#DejaVuSans-6c" transform="translate(1270.564453 0)"/>
     <use xlink:href="#DejaVuSans-65" transform="translate(1298.347656 0)"/>
     <use xlink:href="#DejaVuSans-73" transform="translate(1359.871094 0)"/>
     <use xlink:href="#DejaVuSans-2f" transform="translate(1411.970703 0)"/>
     <use xlink:href="#DejaVuSans-73" transform="translate(1445.662109 0)"/>
     <use xlink:href="#DejaVuSans-20" transform="translate(1497.761719 0)"/>
     <use xlink:href="#DejaVuSans-2192" transform="translate(1529.548828 0)"/>
     <use xlink:href="#DejaVuSans-20" transform="translate(1613.337891 0)"/>
     <use xlink:href="#DejaVuSans-52" transform="translate(1645.125 0)"/>
     <use xlink:href="#DejaVuSans-41" transform="translate(1710.607422 0)"/>
     <use xlink:href="#DejaVuSans-4d" transform="translate(1779.015625 0)"/>
     <use xlink:href="#DejaVuSans-20" transform="translate(1865.294922 0)"/>
     <use xlink:href="#DejaVuSans-2192" transform="translate(1897.082031 0)"/>
     <use xlink:href="#DejaVuSans-20" transform="translate(1980.871094 0)"/>
     <use xlink:href="#DejaVuSans-55" transform="translate(2012.658203 0)"/>
     <use xlink:href="#DejaVuSans-53" transform="translate(2085.851562 0)"/>
     <use xlink:href="#DejaVuSans-42" transform="translate(2149.328125 0)"/>
    </g>
    <!-- PC FM discriminator + 75 µs de-emphasis -->
    <g transform="translate(378.059609 309.021631) scale(0.115 -0.115)">
     <defs>
      <path id="DejaVuSans-b5" d="M 544 -1331
L 544 3500
L 1119 3500
L 1119 1325
Q 1119 872 1334 640
Q 1550 409 1972 409
Q 2434 409 2667 671
Q 2900 934 2900 1459
L 2900 3500
L 3475 3500
L 3475 806
Q 3475 619 3529 530
Q 3584 441 3700 441
Q 3728 441 3778 458
Q 3828 475 3916 513
L 3916 50
Q 3788 -22 3673 -56
Q 3559 -91 3450 -91
Q 3234 -91 3106 31
Q 2978 153 2931 403
Q 2775 156 2548 32
Q 2322 -91 2016 -91
Q 1697 -91 1473 31
Q 1250 153 1119 397
L 1119 -1331
L 544 -1331
z
" transform="scale(0.015625)"/>
     </defs>
     <use xlink:href="#DejaVuSans-50"/>
     <use xlink:href="#DejaVuSans-43" transform="translate(60.302734 0)"/>
     <use xlink:href="#DejaVuSans-20" transform="translate(130.126953 0)"/>
     <use xlink:href="#DejaVuSans-46" transform="translate(161.914062 0)"/>
     <use xlink:href="#DejaVuSans-4d" transform="translate(219.433594 0)"/>
     <use xlink:href="#DejaVuSans-20" transform="translate(305.712891 0)"/>
     <use xlink:href="#DejaVuSans-64" transform="translate(337.5 0)"/>
     <use xlink:href="#DejaVuSans-69" transform="translate(400.976562 0)"/>
     <use xlink:href="#DejaVuSans-73" transform="translate(428.759766 0)"/>
     <use xlink:href="#DejaVuSans-63" transform="translate(480.859375 0)"/>
     <use xlink:href="#DejaVuSans-72" transform="translate(535.839844 0)"/>
     <use xlink:href="#DejaVuSans-69" transform="translate(576.953125 0)"/>
     <use xlink:href="#DejaVuSans-6d" transform="translate(604.736328 0)"/>
     <use xlink:href="#DejaVuSans-69" transform="translate(702.148438 0)"/>
     <use xlink:href="#DejaVuSans-6e" transform="translate(729.931641 0)"/>
     <use xlink:href="#DejaVuSans-61" transform="translate(793.310547 0)"/>
     <use xlink:href="#DejaVuSans-74" transform="translate(854.589844 0)"/>
     <use xlink:href="#DejaVuSans-6f" transform="translate(893.798828 0)"/>
     <use xlink:href="#DejaVuSans-72" transform="translate(954.980469 0)"/>
     <use xlink:href="#DejaVuSans-20" transform="translate(996.09375 0)"/>
     <use xlink:href="#DejaVuSans-2b" transform="translate(1027.880859 0)"/>
     <use xlink:href="#DejaVuSans-20" transform="translate(1111.669922 0)"/>
     <use xlink:href="#DejaVuSans-37" transform="translate(1143.457031 0)"/>
     <use xlink:href="#DejaVuSans-35" transform="translate(1207.080078 0)"/>
     <use xlink:href="#DejaVuSans-20" transform="translate(1270.703125 0)"/>
     <use xlink:href="#DejaVuSans-b5" transform="translate(1302.490234 0)"/>
     <use xlink:href="#DejaVuSans-73" transform="translate(1366.113281 0)"/>
     <use xlink:href="#DejaVuSans-20" transform="translate(1418.212891 0)"/>
     <use xlink:href="#DejaVuSans-64" transform="translate(1450 0)"/>
     <use xlink:href="#DejaVuSans-65" transform="translate(1513.476562 0)"/>
     <use xlink:href="#DejaVuSans-2d" transform="translate(1575 0)"/>
     <use xlink:href="#DejaVuSans-65" transform="translate(1611.083984 0)"/>
     <use xlink:href="#DejaVuSans-6d" transform="translate(1672.607422 0)"/>
     <use xlink:href="#DejaVuSans-70" transform="translate(1770.019531 0)"/>
     <use xlink:href="#DejaVuSans-68" transform="translate(1833.496094 0)"/>
     <use xlink:href="#DejaVuSans-61" transform="translate(1896.875 0)"/>
     <use xlink:href="#DejaVuSans-73" transform="translate(1958.154297 0)"/>
     <use xlink:href="#DejaVuSans-69" transform="translate(2010.253906 0)"/>
     <use xlink:href="#DejaVuSans-73" transform="translate(2038.037109 0)"/>
    </g>
    <!-- 48 kHz mono WAV -->
    <g transform="translate(445.618516 321.899116) scale(0.115 -0.115)">
     <defs>
      <path id="DejaVuSans-6b" d="M 581 4863
L 1159 4863
L 1159 1991
L 2875 3500
L 3609 3500
L 1753 1863
L 3688 0
L 2938 0
L 1159 1709
L 1159 0
L 581 0
L 581 4863
z
" transform="scale(0.015625)"/>
      <path id="DejaVuSans-57" d="M 213 4666
L 850 4666
L 1831 722
L 2809 4666
L 3519 4666
L 4500 722
L 5478 4666
L 6119 4666
L 4947 0
L 4153 0
L 3169 4050
L 2175 0
L 1381 0
L 213 4666
z
" transform="scale(0.015625)"/>
     </defs>
     <use xlink:href="#DejaVuSans-34"/>
     <use xlink:href="#DejaVuSans-38" transform="translate(63.623047 0)"/>
     <use xlink:href="#DejaVuSans-20" transform="translate(127.246094 0)"/>
     <use xlink:href="#DejaVuSans-6b" transform="translate(159.033203 0)"/>
     <use xlink:href="#DejaVuSans-48" transform="translate(216.943359 0)"/>
     <use xlink:href="#DejaVuSans-7a" transform="translate(292.138672 0)"/>
     <use xlink:href="#DejaVuSans-20" transform="translate(344.628906 0)"/>
     <use xlink:href="#DejaVuSans-6d" transform="translate(376.416016 0)"/>
     <use xlink:href="#DejaVuSans-6f" transform="translate(473.828125 0)"/>
     <use xlink:href="#DejaVuSans-6e" transform="translate(535.009766 0)"/>
     <use xlink:href="#DejaVuSans-6f" transform="translate(598.388672 0)"/>
     <use xlink:href="#DejaVuSans-20" transform="translate(659.570312 0)"/>
     <use xlink:href="#DejaVuSans-57" transform="translate(691.357422 0)"/>
     <use xlink:href="#DejaVuSans-41" transform="translate(784.734375 0)"/>
     <use xlink:href="#DejaVuSans-56" transform="translate(846.767578 0)"/>
    </g>
   </g>
   <g id="patch_12">
    <path d="M 324.469182 306.11862
Q 336.418906 306.11862 346.356169 306.11862
" style="fill: none; stroke: #24705a; stroke-width: 1.8; stroke-linecap: round"/>
    <path d="M 341.556169 303.71862
L 346.356169 306.11862
L 341.556169 308.51862
" style="fill: none; stroke: #24705a; stroke-width: 1.8; stroke-linecap: round"/>
   </g>
   <g id="text_8">
    <!-- The listening channel preserves numerical I/Q. It does not replace full-band RF acquisition. -->
    <g style="fill: #143b32" transform="translate(26.73 393.6861) scale(0.12 -0.12)">
     <defs>
      <path id="DejaVuSans-71" d="M 947 1747
Q 947 1113 1208 752
Q 1469 391 1925 391
Q 2381 391 2643 752
Q 2906 1113 2906 1747
Q 2906 2381 2643 2742
Q 2381 3103 1925 3103
Q 1469 3103 1208 2742
Q 947 2381 947 1747
z
M 2906 525
Q 2725 213 2448 61
Q 2172 -91 1784 -91
Q 1150 -91 751 415
Q 353 922 353 1747
Q 353 2572 751 3078
Q 1150 3584 1784 3584
Q 2172 3584 2448 3432
Q 2725 3281 2906 2969
L 2906 3500
L 3481 3500
L 3481 -1331
L 2906 -1331
L 2906 525
z
" transform="scale(0.015625)"/>
     </defs>
     <use xlink:href="#DejaVuSans-54"/>
     <use xlink:href="#DejaVuSans-68" transform="translate(61.083984 0)"/>
     <use xlink:href="#DejaVuSans-65" transform="translate(124.462891 0)"/>
     <use xlink:href="#DejaVuSans-20" transform="translate(185.986328 0)"/>
     <use xlink:href="#DejaVuSans-6c" transform="translate(217.773438 0)"/>
     <use xlink:href="#DejaVuSans-69" transform="translate(245.556641 0)"/>
     <use xlink:href="#DejaVuSans-73" transform="translate(273.339844 0)"/>
     <use xlink:href="#DejaVuSans-74" transform="translate(325.439453 0)"/>
     <use xlink:href="#DejaVuSans-65" transform="translate(364.648438 0)"/>
     <use xlink:href="#DejaVuSans-6e" transform="translate(426.171875 0)"/>
     <use xlink:href="#DejaVuSans-69" transform="translate(489.550781 0)"/>
     <use xlink:href="#DejaVuSans-6e" transform="translate(517.333984 0)"/>
     <use xlink:href="#DejaVuSans-67" transform="translate(580.712891 0)"/>
     <use xlink:href="#DejaVuSans-20" transform="translate(644.189453 0)"/>
     <use xlink:href="#DejaVuSans-63" transform="translate(675.976562 0)"/>
     <use xlink:href="#DejaVuSans-68" transform="translate(730.957031 0)"/>
     <use xlink:href="#DejaVuSans-61" transform="translate(794.335938 0)"/>
     <use xlink:href="#DejaVuSans-6e" transform="translate(855.615234 0)"/>
     <use xlink:href="#DejaVuSans-6e" transform="translate(918.994141 0)"/>
     <use xlink:href="#DejaVuSans-65" transform="translate(982.373047 0)"/>
     <use xlink:href="#DejaVuSans-6c" transform="translate(1043.896484 0)"/>
     <use xlink:href="#DejaVuSans-20" transform="translate(1071.679688 0)"/>
     <use xlink:href="#DejaVuSans-70" transform="translate(1103.466797 0)"/>
     <use xlink:href="#DejaVuSans-72" transform="translate(1166.943359 0)"/>
     <use xlink:href="#DejaVuSans-65" transform="translate(1205.806641 0)"/>
     <use xlink:href="#DejaVuSans-73" transform="translate(1267.330078 0)"/>
     <use xlink:href="#DejaVuSans-65" transform="translate(1319.429688 0)"/>
     <use xlink:href="#DejaVuSans-72" transform="translate(1380.953125 0)"/>
     <use xlink:href="#DejaVuSans-76" transform="translate(1422.066406 0)"/>
     <use xlink:href="#DejaVuSans-65" transform="translate(1481.246094 0)"/>
     <use xlink:href="#DejaVuSans-73" transform="translate(1542.769531 0)"/>
     <use xlink:href="#DejaVuSans-20" transform="translate(1594.869141 0)"/>
     <use xlink:href="#DejaVuSans-6e" transform="translate(1626.65625 0)"/>
     <use xlink:href="#DejaVuSans-75" transform="translate(1690.035156 0)"/>
     <use xlink:href="#DejaVuSans-6d" transform="translate(1753.414062 0)"/>
     <use xlink:href="#DejaVuSans-65" transform="translate(1850.826172 0)"/>
     <use xlink:href="#DejaVuSans-72" transform="translate(1912.349609 0)"/>
     <use xlink:href="#DejaVuSans-69" transform="translate(1953.462891 0)"/>
     <use xlink:href="#DejaVuSans-63" transform="translate(1981.246094 0)"/>
     <use xlink:href="#DejaVuSans-61" transform="translate(2036.226562 0)"/>
     <use xlink:href="#DejaVuSans-6c" transform="translate(2097.505859 0)"/>
     <use xlink:href="#DejaVuSans-20" transform="translate(2125.289062 0)"/>
     <use xlink:href="#DejaVuSans-49" transform="translate(2157.076172 0)"/>
     <use xlink:href="#DejaVuSans-2f" transform="translate(2186.568359 0)"/>
     <use xlink:href="#DejaVuSans-51" transform="translate(2220.259766 0)"/>
     <use xlink:href="#DejaVuSans-2e" transform="translate(2298.970703 0)"/>
     <use xlink:href="#DejaVuSans-20" transform="translate(2330.757812 0)"/>
     <use xlink:href="#DejaVuSans-49" transform="translate(2362.544922 0)"/>
     <use xlink:href="#DejaVuSans-74" transform="translate(2392.037109 0)"/>
     <use xlink:href="#DejaVuSans-20" transform="translate(2431.246094 0)"/>
     <use xlink:href="#DejaVuSans-64" transform="translate(2463.033203 0)"/>
     <use xlink:href="#DejaVuSans-6f" transform="translate(2526.509766 0)"/>
     <use xlink:href="#DejaVuSans-65" transform="translate(2587.691406 0)"/>
     <use xlink:href="#DejaVuSans-73" transform="translate(2649.214844 0)"/>
     <use xlink:href="#DejaVuSans-20" transform="translate(2701.314453 0)"/>
     <use xlink:href="#DejaVuSans-6e" transform="translate(2733.101562 0)"/>
     <use xlink:href="#DejaVuSans-6f" transform="translate(2796.480469 0)"/>
     <use xlink:href="#DejaVuSans-74" transform="translate(2857.662109 0)"/>
     <use xlink:href="#DejaVuSans-20" transform="translate(2896.871094 0)"/>
     <use xlink:href="#DejaVuSans-72" transform="translate(2928.658203 0)"/>
     <use xlink:href="#DejaVuSans-65" transform="translate(2967.521484 0)"/>
     <use xlink:href="#DejaVuSans-70" transform="translate(3029.044922 0)"/>
     <use xlink:href="#DejaVuSans-6c" transform="translate(3092.521484 0)"/>
     <use xlink:href="#DejaVuSans-61" transform="translate(3120.304688 0)"/>
     <use xlink:href="#DejaVuSans-63" transform="translate(3181.583984 0)"/>
     <use xlink:href="#DejaVuSans-65" transform="translate(3236.564453 0)"/>
     <use xlink:href="#DejaVuSans-20" transform="translate(3298.087891 0)"/>
     <use xlink:href="#DejaVuSans-66" transform="translate(3329.875 0)"/>
     <use xlink:href="#DejaVuSans-75" transform="translate(3365.080078 0)"/>
     <use xlink:href="#DejaVuSans-6c" transform="translate(3428.458984 0)"/>
     <use xlink:href="#DejaVuSans-6c" transform="translate(3456.242188 0)"/>
     <use xlink:href="#DejaVuSans-2d" transform="translate(3484.025391 0)"/>
     <use xlink:href="#DejaVuSans-62" transform="translate(3520.109375 0)"/>
     <use xlink:href="#DejaVuSans-61" transform="translate(3583.585938 0)"/>
     <use xlink:href="#DejaVuSans-6e" transform="translate(3644.865234 0)"/>
     <use xlink:href="#DejaVuSans-64" transform="translate(3708.244141 0)"/>
     <use xlink:href="#DejaVuSans-20" transform="translate(3771.720703 0)"/>
     <use xlink:href="#DejaVuSans-52" transform="translate(3803.507812 0)"/>
     <use xlink:href="#DejaVuSans-46" transform="translate(3872.990234 0)"/>
     <use xlink:href="#DejaVuSans-20" transform="translate(3930.509766 0)"/>
     <use xlink:href="#DejaVuSans-61" transform="translate(3962.296875 0)"/>
     <use xlink:href="#DejaVuSans-63" transform="translate(4023.576172 0)"/>
     <use xlink:href="#DejaVuSans-71" transform="translate(4078.556641 0)"/>
     <use xlink:href="#DejaVuSans-75" transform="translate(4142.033203 0)"/>
     <use xlink:href="#DejaVuSans-69" transform="translate(4205.412109 0)"/>
     <use xlink:href="#DejaVuSans-73" transform="translate(4233.195312 0)"/>
     <use xlink:href="#DejaVuSans-69" transform="translate(4285.294922 0)"/>
     <use xlink:href="#DejaVuSans-74" transform="translate(4313.078125 0)"/>
     <use xlink:href="#DejaVuSans-69" transform="translate(4352.287109 0)"/>
     <use xlink:href="#DejaVuSans-6f" transform="translate(4380.070312 0)"/>
     <use xlink:href="#DejaVuSans-6e" transform="translate(4441.251953 0)"/>
     <use xlink:href="#DejaVuSans-2e" transform="translate(4504.630859 0)"/>
    </g>
   </g>
   <g id="text_9">
    <!-- No FPGA audio SDM · no external LNA · generator off · no ADC in the bias loop -->
    <g style="fill: #143b32" transform="translate(26.73 419.09148) scale(0.12 -0.12)">
     <use xlink:href="#DejaVuSans-4e"/>
     <use xlink:href="#DejaVuSans-6f" transform="translate(74.804688 0)"/>
     <use xlink:href="#DejaVuSans-20" transform="translate(135.986328 0)"/>
     <use xlink:href="#DejaVuSans-46" transform="translate(167.773438 0)"/>
     <use xlink:href="#DejaVuSans-50" transform="translate(225.292969 0)"/>
     <use xlink:href="#DejaVuSans-47" transform="translate(285.595703 0)"/>
     <use xlink:href="#DejaVuSans-41" transform="translate(363.085938 0)"/>
     <use xlink:href="#DejaVuSans-20" transform="translate(431.494141 0)"/>
     <use xlink:href="#DejaVuSans-61" transform="translate(463.28125 0)"/>
     <use xlink:href="#DejaVuSans-75" transform="translate(524.560547 0)"/>
     <use xlink:href="#DejaVuSans-64" transform="translate(587.939453 0)"/>
     <use xlink:href="#DejaVuSans-69" transform="translate(651.416016 0)"/>
     <use xlink:href="#DejaVuSans-6f" transform="translate(679.199219 0)"/>
     <use xlink:href="#DejaVuSans-20" transform="translate(740.380859 0)"/>
     <use xlink:href="#DejaVuSans-53" transform="translate(772.167969 0)"/>
     <use xlink:href="#DejaVuSans-44" transform="translate(835.644531 0)"/>
     <use xlink:href="#DejaVuSans-4d" transform="translate(912.646484 0)"/>
     <use xlink:href="#DejaVuSans-20" transform="translate(998.925781 0)"/>
     <use xlink:href="#DejaVuSans-b7" transform="translate(1030.712891 0)"/>
     <use xlink:href="#DejaVuSans-20" transform="translate(1062.5 0)"/>
     <use xlink:href="#DejaVuSans-6e" transform="translate(1094.287109 0)"/>
     <use xlink:href="#DejaVuSans-6f" transform="translate(1157.666016 0)"/>
     <use xlink:href="#DejaVuSans-20" transform="translate(1218.847656 0)"/>
     <use xlink:href="#DejaVuSans-65" transform="translate(1250.634766 0)"/>
     <use xlink:href="#DejaVuSans-78" transform="translate(1310.408203 0)"/>
     <use xlink:href="#DejaVuSans-74" transform="translate(1369.587891 0)"/>
     <use xlink:href="#DejaVuSans-65" transform="translate(1408.796875 0)"/>
     <use xlink:href="#DejaVuSans-72" transform="translate(1470.320312 0)"/>
     <use xlink:href="#DejaVuSans-6e" transform="translate(1509.683594 0)"/>
     <use xlink:href="#DejaVuSans-61" transform="translate(1573.0625 0)"/>
     <use xlink:href="#DejaVuSans-6c" transform="translate(1634.341797 0)"/>
     <use xlink:href="#DejaVuSans-20" transform="translate(1662.125 0)"/>
     <use xlink:href="#DejaVuSans-4c" transform="translate(1693.912109 0)"/>
     <use xlink:href="#DejaVuSans-4e" transform="translate(1749.625 0)"/>
     <use xlink:href="#DejaVuSans-41" transform="translate(1824.429688 0)"/>
     <use xlink:href="#DejaVuSans-20" transform="translate(1892.837891 0)"/>
     <use xlink:href="#DejaVuSans-b7" transform="translate(1924.625 0)"/>
     <use xlink:href="#DejaVuSans-20" transform="translate(1956.412109 0)"/>
     <use xlink:href="#DejaVuSans-67" transform="translate(1988.199219 0)"/>
     <use xlink:href="#DejaVuSans-65" transform="translate(2051.675781 0)"/>
     <use xlink:href="#DejaVuSans-6e" transform="translate(2113.199219 0)"/>
     <use xlink:href="#DejaVuSans-65" transform="translate(2176.578125 0)"/>
     <use xlink:href="#DejaVuSans-72" transform="translate(2238.101562 0)"/>
     <use xlink:href="#DejaVuSans-61" transform="translate(2279.214844 0)"/>
     <use xlink:href="#DejaVuSans-74" transform="translate(2340.494141 0)"/>
     <use xlink:href="#DejaVuSans-6f" transform="translate(2379.703125 0)"/>
     <use xlink:href="#DejaVuSans-72" transform="translate(2440.884766 0)"/>
     <use xlink:href="#DejaVuSans-20" transform="translate(2481.998047 0)"/>
     <use xlink:href="#DejaVuSans-6f" transform="translate(2513.785156 0)"/>
     <use xlink:href="#DejaVuSans-66" transform="translate(2574.966797 0)"/>
     <use xlink:href="#DejaVuSans-66" transform="translate(2610.171875 0)"/>
     <use xlink:href="#DejaVuSans-20" transform="translate(2645.376953 0)"/>
     <use xlink:href="#DejaVuSans-b7" transform="translate(2677.164062 0)"/>
     <use xlink:href="#DejaVuSans-20" transform="translate(2708.951172 0)"/>
     <use xlink:href="#DejaVuSans-6e" transform="translate(2740.738281 0)"/>
     <use xlink:href="#DejaVuSans-6f" transform="translate(2804.117188 0)"/>
     <use xlink:href="#DejaVuSans-20" transform="translate(2865.298828 0)"/>
     <use xlink:href="#DejaVuSans-41" transform="translate(2897.085938 0)"/>
     <use xlink:href="#DejaVuSans-44" transform="translate(2965.494141 0)"/>
     <use xlink:href="#DejaVuSans-43" transform="translate(3042.496094 0)"/>
     <use xlink:href="#DejaVuSans-20" transform="translate(3112.320312 0)"/>
     <use xlink:href="#DejaVuSans-69" transform="translate(3144.107422 0)"/>
     <use xlink:href="#DejaVuSans-6e" transform="translate(3171.890625 0)"/>
     <use xlink:href="#DejaVuSans-20" transform="translate(3235.269531 0)"/>
     <use xlink:href="#DejaVuSans-74" transform="translate(3267.056641 0)"/>
     <use xlink:href="#DejaVuSans-68" transform="translate(3306.265625 0)"/>
     <use xlink:href="#DejaVuSans-65" transform="translate(3369.644531 0)"/>
     <use xlink:href="#DejaVuSans-20" transform="translate(3431.167969 0)"/>
     <use xlink:href="#DejaVuSans-62" transform="translate(3462.955078 0)"/>
     <use xlink:href="#DejaVuSans-69" transform="translate(3526.431641 0)"/>
     <use xlink:href="#DejaVuSans-61" transform="translate(3554.214844 0)"/>
     <use xlink:href="#DejaVuSans-73" transform="translate(3615.494141 0)"/>
     <use xlink:href="#DejaVuSans-20" transform="translate(3667.59375 0)"/>
     <use xlink:href="#DejaVuSans-6c" transform="translate(3699.380859 0)"/>
     <use xlink:href="#DejaVuSans-6f" transform="translate(3727.164062 0)"/>
     <use xlink:href="#DejaVuSans-6f" transform="translate(3788.345703 0)"/>
     <use xlink:href="#DejaVuSans-70" transform="translate(3849.527344 0)"/>
    </g>
   </g>
  </g>
 </g>
 <defs>
  <clipPath id="pbb3846057f">
   <rect x="7.2" y="7.2" width="669.6" height="432.432"/>
  </clipPath>
 </defs>
</svg>
