<?xml version="1.0" encoding="UTF-8"?>
<svg xmlns="http://www.w3.org/2000/svg" width="1200" height="675" viewBox="0 0 1200 675" role="img" aria-labelledby="cartilage-roadmap-01-wide-title cartilage-roadmap-01-wide-desc">
  <title id="cartilage-roadmap-01-wide-title">Proposed component tags without a reconfiguration-port root</title>
  <desc id="cartilage-roadmap-01-wide-desc">An irregular group of cells shares component tag C17 without an RP cell. A second view derives a patterned background, solid contour, and focus label from the tags. The view grants no write authority.</desc>
<defs>
    <marker id="arrow-ink" markerWidth="11" markerHeight="11" refX="9" refY="5.5" orient="auto">
      <path d="M0,0 L11,5.5 L0,11 z" fill="#132b25"/>
    </marker>
    <marker id="arrow-green" markerWidth="11" markerHeight="11" refX="9" refY="5.5" orient="auto">
      <path d="M0,0 L11,5.5 L0,11 z" fill="#087a45"/>
    </marker>
    <marker id="arrow-blue" markerWidth="11" markerHeight="11" refX="9" refY="5.5" orient="auto">
      <path d="M0,0 L11,5.5 L0,11 z" fill="#175b8f"/>
    </marker>
    <marker id="arrow-warning" markerWidth="11" markerHeight="11" refX="9" refY="5.5" orient="auto">
      <path d="M0,0 L11,5.5 L0,11 z" fill="#9a5516"/>
    </marker>
    <marker id="arrow-hollow" markerWidth="13" markerHeight="13" refX="11" refY="6.5" orient="auto">
      <path d="M1,1 L12,6.5 L1,12 z" fill="#ffffff" stroke="#175b8f" stroke-width="2"/>
    </marker>
    <pattern id="hatch-a" width="12" height="12" patternUnits="userSpaceOnUse" patternTransform="rotate(35)">
      <rect width="12" height="12" fill="#e3f0e9"/>
      <line x1="0" y1="0" x2="0" y2="12" stroke="#087a45" stroke-width="2"/>
    </pattern>
    <pattern id="hatch-b" width="12" height="12" patternUnits="userSpaceOnUse" patternTransform="rotate(-35)">
      <rect width="12" height="12" fill="#e3edf5"/>
      <line x1="0" y1="0" x2="0" y2="12" stroke="#175b8f" stroke-width="2"/>
    </pattern>
    <pattern id="shared-cross" width="14" height="14" patternUnits="userSpaceOnUse">
      <rect width="14" height="14" fill="#fff0dc"/>
      <path d="M0,0 L14,14 M14,0 L0,14" stroke="#9a5516" stroke-width="1.8"/>
    </pattern>
    <pattern id="dot-field" width="14" height="14" patternUnits="userSpaceOnUse">
      <rect width="14" height="14" fill="#f0f2f1"/>
      <circle cx="4" cy="4" r="1.7" fill="#89958f"/>
    </pattern>
  </defs>
  <rect width="1200" height="675" fill="#fbfaf5"/>
  <rect x="42" y="22" width="412" height="34" rx="17" fill="#fff0dc" stroke="#9a5516" stroke-width="2"/><text x="248" y="43.76" text-anchor="middle" font-family="Segoe UI, Arial, sans-serif" font-size="14" font-weight="700" letter-spacing="0.25" fill="#9a5516">PROPOSED TARGET · NOT CURRENT IMPLEMENTATION</text><text x="44" y="94" text-anchor="start" font-family="Segoe UI, Arial, sans-serif" font-size="34" font-weight="800" letter-spacing="0" fill="#132b25"><tspan x="44" dy="0">Tags identify a component without an RP root</tspan></text><text x="44" y="136" text-anchor="start" font-family="Segoe UI, Arial, sans-serif" font-size="18" font-weight="500" letter-spacing="0" fill="#5d6d67"><tspan x="44" dy="0">Identity first; contours and hover are derived inspection views.</tspan></text><rect x="48" y="166" width="505" height="36" rx="18" fill="#e3f0e9" stroke="#087a45" stroke-width="2"/><text x="300.5" y="189.44" text-anchor="middle" font-family="Segoe UI, Arial, sans-serif" font-size="16" font-weight="700" letter-spacing="0.25" fill="#132b25">1 · TAG LAYER — NO RP ROOT</text><rect x="48" y="208" width="505" height="375" rx="12" fill="#ffffff" stroke="#aebdb6" stroke-width="2"/><rect x="105" y="222" width="58" height="58" rx="4" fill="#ffffff" stroke="#aebdb6" stroke-width="1.4"/><rect x="167" y="222" width="58" height="58" rx="4" fill="#e3f0e9" stroke="#087a45" stroke-width="2.5"/><text x="196" y="256" text-anchor="middle" font-family="Segoe UI, Arial, sans-serif" font-size="15" font-weight="800" letter-spacing="0" fill="#132b25">C17</text><rect x="229" y="222" width="58" height="58" rx="4" fill="#e3f0e9" stroke="#087a45" stroke-width="2.5"/><text x="258" y="256" text-anchor="middle" font-family="Segoe UI, Arial, sans-serif" font-size="15" font-weight="800" letter-spacing="0" fill="#132b25">C17</text><rect x="291" y="222" width="58" height="58" rx="4" fill="#ffffff" stroke="#aebdb6" stroke-width="1.4"/><rect x="353" y="222" width="58" height="58" rx="4" fill="#ffffff" stroke="#aebdb6" stroke-width="1.4"/><rect x="105" y="284" width="58" height="58" rx="4" fill="#ffffff" stroke="#aebdb6" stroke-width="1.4"/><rect x="167" y="284" width="58" height="58" rx="4" fill="#e3f0e9" stroke="#087a45" stroke-width="2.5"/><text x="196" y="318" text-anchor="middle" font-family="Segoe UI, Arial, sans-serif" font-size="15" font-weight="800" letter-spacing="0" fill="#132b25">C17</text><rect x="229" y="284" width="58" height="58" rx="4" fill="#e3f0e9" stroke="#087a45" stroke-width="2.5"/><text x="258" y="318" text-anchor="middle" font-family="Segoe UI, Arial, sans-serif" font-size="15" font-weight="800" letter-spacing="0" fill="#132b25">C17</text><rect x="291" y="284" width="58" height="58" rx="4" fill="#e3f0e9" stroke="#087a45" stroke-width="2.5"/><text x="320" y="318" text-anchor="middle" font-family="Segoe UI, Arial, sans-serif" font-size="15" font-weight="800" letter-spacing="0" fill="#132b25">C17</text><rect x="353" y="284" width="58" height="58" rx="4" fill="#ffffff" stroke="#aebdb6" stroke-width="1.4"/><rect x="105" y="346" width="58" height="58" rx="4" fill="#e3f0e9" stroke="#087a45" stroke-width="2.5"/><text x="134" y="380" text-anchor="middle" font-family="Segoe UI, Arial, sans-serif" font-size="15" font-weight="800" letter-spacing="0" fill="#132b25">C17</text><rect x="167" y="346" width="58" height="58" rx="4" fill="#e3f0e9" stroke="#087a45" stroke-width="2.5"/><text x="196" y="380" text-anchor="middle" font-family="Segoe UI, Arial, sans-serif" font-size="15" font-weight="800" letter-spacing="0" fill="#132b25">C17</text><rect x="229" y="346" width="58" height="58" rx="4" fill="#e3f0e9" stroke="#087a45" stroke-width="2.5"/><text x="258" y="380" text-anchor="middle" font-family="Segoe UI, Arial, sans-serif" font-size="15" font-weight="800" letter-spacing="0" fill="#132b25">C17</text><rect x="291" y="346" width="58" height="58" rx="4" fill="#e3f0e9" stroke="#087a45" stroke-width="2.5"/><text x="320" y="380" text-anchor="middle" font-family="Segoe UI, Arial, sans-serif" font-size="15" font-weight="800" letter-spacing="0" fill="#132b25">C17</text><rect x="353" y="346" width="58" height="58" rx="4" fill="#ffffff" stroke="#aebdb6" stroke-width="1.4"/><rect x="105" y="408" width="58" height="58" rx="4" fill="#ffffff" stroke="#aebdb6" stroke-width="1.4"/><rect x="167" y="408" width="58" height="58" rx="4" fill="#e3f0e9" stroke="#087a45" stroke-width="2.5"/><text x="196" y="442" text-anchor="middle" font-family="Segoe UI, Arial, sans-serif" font-size="15" font-weight="800" letter-spacing="0" fill="#132b25">C17</text><rect x="229" y="408" width="58" height="58" rx="4" fill="#e3f0e9" stroke="#087a45" stroke-width="2.5"/><text x="258" y="442" text-anchor="middle" font-family="Segoe UI, Arial, sans-serif" font-size="15" font-weight="800" letter-spacing="0" fill="#132b25">C17</text><rect x="291" y="408" width="58" height="58" rx="4" fill="#e3f0e9" stroke="#087a45" stroke-width="2.5"/><text x="320" y="442" text-anchor="middle" font-family="Segoe UI, Arial, sans-serif" font-size="15" font-weight="800" letter-spacing="0" fill="#132b25">C17</text><rect x="353" y="408" width="58" height="58" rx="4" fill="#ffffff" stroke="#aebdb6" stroke-width="1.4"/><rect x="105" y="470" width="58" height="58" rx="4" fill="#ffffff" stroke="#aebdb6" stroke-width="1.4"/><rect x="167" y="470" width="58" height="58" rx="4" fill="#ffffff" stroke="#aebdb6" stroke-width="1.4"/><rect x="229" y="470" width="58" height="58" rx="4" fill="#e3f0e9" stroke="#087a45" stroke-width="2.5"/><text x="258" y="504" text-anchor="middle" font-family="Segoe UI, Arial, sans-serif" font-size="15" font-weight="800" letter-spacing="0" fill="#132b25">C17</text><rect x="291" y="470" width="58" height="58" rx="4" fill="#ffffff" stroke="#aebdb6" stroke-width="1.4"/><rect x="353" y="470" width="58" height="58" rx="4" fill="#ffffff" stroke="#aebdb6" stroke-width="1.4"/><rect x="174" y="535" width="254" height="38" rx="19" fill="#ffffff" stroke="#132b25" stroke-width="2" stroke-dasharray="8 5"/><text x="301" y="559.1" text-anchor="middle" font-family="Segoe UI, Arial, sans-serif" font-size="15" font-weight="700" letter-spacing="0.25" fill="#132b25">NO RP CELL PRESENT</text><line x1="578" y1="385" x2="656" y2="385" stroke="#132b25" stroke-width="4" stroke-linecap="round" stroke-linejoin="round" marker-end="url(#arrow-ink)" opacity="1"/><text x="617" y="365" text-anchor="middle" font-family="Segoe UI, Arial, sans-serif" font-size="15" font-weight="800" letter-spacing="0" fill="#5d6d67">derive view</text><rect x="680" y="166" width="472" height="36" rx="18" fill="#e3edf5" stroke="#175b8f" stroke-width="2"/><text x="916" y="189.44" text-anchor="middle" font-family="Segoe UI, Arial, sans-serif" font-size="16" font-weight="700" letter-spacing="0.25" fill="#132b25">2 · DERIVED CONTOUR + HOVER / FOCUS</text><rect x="680" y="208" width="472" height="375" rx="12" fill="#ffffff" stroke="#aebdb6" stroke-width="2"/><rect x="730" y="222" width="58" height="58" rx="4" fill="#ffffff" stroke="#aebdb6" stroke-width="1.4"/><rect x="792" y="222" width="58" height="58" rx="4" fill="url(#hatch-a)" stroke="#087a45" stroke-width="2.5"/><text x="821" y="256" text-anchor="middle" font-family="Segoe UI, Arial, sans-serif" font-size="15" font-weight="800" letter-spacing="0" fill="#132b25">C17</text><rect x="854" y="222" width="58" height="58" rx="4" fill="url(#hatch-a)" stroke="#087a45" stroke-width="2.5"/><text x="883" y="256" text-anchor="middle" font-family="Segoe UI, Arial, sans-serif" font-size="15" font-weight="800" letter-spacing="0" fill="#132b25">C17</text><rect x="916" y="222" width="58" height="58" rx="4" fill="#ffffff" stroke="#aebdb6" stroke-width="1.4"/><rect x="978" y="222" width="58" height="58" rx="4" fill="#ffffff" stroke="#aebdb6" stroke-width="1.4"/><rect x="730" y="284" width="58" height="58" rx="4" fill="#ffffff" stroke="#aebdb6" stroke-width="1.4"/><rect x="792" y="284" width="58" height="58" rx="4" fill="url(#hatch-a)" stroke="#087a45" stroke-width="2.5"/><text x="821" y="318" text-anchor="middle" font-family="Segoe UI, Arial, sans-serif" font-size="15" font-weight="800" letter-spacing="0" fill="#132b25">C17</text><rect x="854" y="284" width="58" height="58" rx="4" fill="url(#hatch-a)" stroke="#087a45" stroke-width="2.5"/><text x="883" y="318" text-anchor="middle" font-family="Segoe UI, Arial, sans-serif" font-size="15" font-weight="800" letter-spacing="0" fill="#132b25">C17</text><rect x="916" y="284" width="58" height="58" rx="4" fill="url(#hatch-a)" stroke="#087a45" stroke-width="2.5"/><text x="945" y="318" text-anchor="middle" font-family="Segoe UI, Arial, sans-serif" font-size="15" font-weight="800" letter-spacing="0" fill="#132b25">C17</text><rect x="978" y="284" width="58" height="58" rx="4" fill="#ffffff" stroke="#aebdb6" stroke-width="1.4"/><rect x="730" y="346" width="58" height="58" rx="4" fill="url(#hatch-a)" stroke="#087a45" stroke-width="2.5"/><text x="759" y="380" text-anchor="middle" font-family="Segoe UI, Arial, sans-serif" font-size="15" font-weight="800" letter-spacing="0" fill="#132b25">C17</text><rect x="792" y="346" width="58" height="58" rx="4" fill="url(#hatch-a)" stroke="#087a45" stroke-width="2.5"/><text x="821" y="380" text-anchor="middle" font-family="Segoe UI, Arial, sans-serif" font-size="15" font-weight="800" letter-spacing="0" fill="#132b25">C17</text><rect x="854" y="346" width="58" height="58" rx="4" fill="url(#hatch-a)" stroke="#087a45" stroke-width="2.5"/><text x="883" y="380" text-anchor="middle" font-family="Segoe UI, Arial, sans-serif" font-size="15" font-weight="800" letter-spacing="0" fill="#132b25">C17</text><rect x="916" y="346" width="58" height="58" rx="4" fill="url(#hatch-a)" stroke="#087a45" stroke-width="2.5"/><text x="945" y="380" text-anchor="middle" font-family="Segoe UI, Arial, sans-serif" font-size="15" font-weight="800" letter-spacing="0" fill="#132b25">C17</text><rect x="978" y="346" width="58" height="58" rx="4" fill="#ffffff" stroke="#aebdb6" stroke-width="1.4"/><rect x="730" y="408" width="58" height="58" rx="4" fill="#ffffff" stroke="#aebdb6" stroke-width="1.4"/><rect x="792" y="408" width="58" height="58" rx="4" fill="url(#hatch-a)" stroke="#087a45" stroke-width="2.5"/><text x="821" y="442" text-anchor="middle" font-family="Segoe UI, Arial, sans-serif" font-size="15" font-weight="800" letter-spacing="0" fill="#132b25">C17</text><rect x="854" y="408" width="58" height="58" rx="4" fill="url(#hatch-a)" stroke="#087a45" stroke-width="2.5"/><text x="883" y="442" text-anchor="middle" font-family="Segoe UI, Arial, sans-serif" font-size="15" font-weight="800" letter-spacing="0" fill="#132b25">C17</text><rect x="916" y="408" width="58" height="58" rx="4" fill="url(#hatch-a)" stroke="#087a45" stroke-width="2.5"/><text x="945" y="442" text-anchor="middle" font-family="Segoe UI, Arial, sans-serif" font-size="15" font-weight="800" letter-spacing="0" fill="#132b25">C17</text><rect x="978" y="408" width="58" height="58" rx="4" fill="#ffffff" stroke="#aebdb6" stroke-width="1.4"/><rect x="730" y="470" width="58" height="58" rx="4" fill="#ffffff" stroke="#aebdb6" stroke-width="1.4"/><rect x="792" y="470" width="58" height="58" rx="4" fill="#ffffff" stroke="#aebdb6" stroke-width="1.4"/><rect x="854" y="470" width="58" height="58" rx="4" fill="url(#hatch-a)" stroke="#087a45" stroke-width="2.5"/><text x="883" y="504" text-anchor="middle" font-family="Segoe UI, Arial, sans-serif" font-size="15" font-weight="800" letter-spacing="0" fill="#132b25">C17</text><rect x="916" y="470" width="58" height="58" rx="4" fill="#ffffff" stroke="#aebdb6" stroke-width="1.4"/><rect x="978" y="470" width="58" height="58" rx="4" fill="#ffffff" stroke="#aebdb6" stroke-width="1.4"/><line x1="792" y1="222" x2="850" y2="222" stroke="#175b8f" stroke-width="10" stroke-linecap="round" stroke-linejoin="round" opacity="1"/><line x1="792" y1="222" x2="792" y2="280" stroke="#175b8f" stroke-width="10" stroke-linecap="round" stroke-linejoin="round" opacity="1"/><line x1="854" y1="222" x2="912" y2="222" stroke="#175b8f" stroke-width="10" stroke-linecap="round" stroke-linejoin="round" opacity="1"/><line x1="912" y1="222" x2="912" y2="280" stroke="#175b8f" stroke-width="10" stroke-linecap="round" stroke-linejoin="round" opacity="1"/><line x1="792" y1="284" x2="792" y2="342" stroke="#175b8f" stroke-width="10" stroke-linecap="round" stroke-linejoin="round" opacity="1"/><line x1="916" y1="284" x2="974" y2="284" stroke="#175b8f" stroke-width="10" stroke-linecap="round" stroke-linejoin="round" opacity="1"/><line x1="974" y1="284" x2="974" y2="342" stroke="#175b8f" stroke-width="10" stroke-linecap="round" stroke-linejoin="round" opacity="1"/><line x1="730" y1="346" x2="788" y2="346" stroke="#175b8f" stroke-width="10" stroke-linecap="round" stroke-linejoin="round" opacity="1"/><line x1="730" y1="404" x2="788" y2="404" stroke="#175b8f" stroke-width="10" stroke-linecap="round" stroke-linejoin="round" opacity="1"/><line x1="730" y1="346" x2="730" y2="404" stroke="#175b8f" stroke-width="10" stroke-linecap="round" stroke-linejoin="round" opacity="1"/><line x1="974" y1="346" x2="974" y2="404" stroke="#175b8f" stroke-width="10" stroke-linecap="round" stroke-linejoin="round" opacity="1"/><line x1="792" y1="466" x2="850" y2="466" stroke="#175b8f" stroke-width="10" stroke-linecap="round" stroke-linejoin="round" opacity="1"/><line x1="792" y1="408" x2="792" y2="466" stroke="#175b8f" stroke-width="10" stroke-linecap="round" stroke-linejoin="round" opacity="1"/><line x1="974" y1="408" x2="974" y2="466" stroke="#175b8f" stroke-width="10" stroke-linecap="round" stroke-linejoin="round" opacity="1"/><line x1="916" y1="466" x2="974" y2="466" stroke="#175b8f" stroke-width="10" stroke-linecap="round" stroke-linejoin="round" opacity="1"/><line x1="912" y1="470" x2="912" y2="528" stroke="#175b8f" stroke-width="10" stroke-linecap="round" stroke-linejoin="round" opacity="1"/><line x1="854" y1="528" x2="912" y2="528" stroke="#175b8f" stroke-width="10" stroke-linecap="round" stroke-linejoin="round" opacity="1"/><line x1="854" y1="470" x2="854" y2="528" stroke="#175b8f" stroke-width="10" stroke-linecap="round" stroke-linejoin="round" opacity="1"/><line x1="792" y1="222" x2="850" y2="222" stroke="#087a45" stroke-width="4" stroke-linecap="round" stroke-linejoin="round" opacity="1"/><line x1="792" y1="222" x2="792" y2="280" stroke="#087a45" stroke-width="4" stroke-linecap="round" stroke-linejoin="round" opacity="1"/><line x1="854" y1="222" x2="912" y2="222" stroke="#087a45" stroke-width="4" stroke-linecap="round" stroke-linejoin="round" opacity="1"/><line x1="912" y1="222" x2="912" y2="280" stroke="#087a45" stroke-width="4" stroke-linecap="round" stroke-linejoin="round" opacity="1"/><line x1="792" y1="284" x2="792" y2="342" stroke="#087a45" stroke-width="4" stroke-linecap="round" stroke-linejoin="round" opacity="1"/><line x1="916" y1="284" x2="974" y2="284" stroke="#087a45" stroke-width="4" stroke-linecap="round" stroke-linejoin="round" opacity="1"/><line x1="974" y1="284" x2="974" y2="342" stroke="#087a45" stroke-width="4" stroke-linecap="round" stroke-linejoin="round" opacity="1"/><line x1="730" y1="346" x2="788" y2="346" stroke="#087a45" stroke-width="4" stroke-linecap="round" stroke-linejoin="round" opacity="1"/><line x1="730" y1="404" x2="788" y2="404" stroke="#087a45" stroke-width="4" stroke-linecap="round" stroke-linejoin="round" opacity="1"/><line x1="730" y1="346" x2="730" y2="404" stroke="#087a45" stroke-width="4" stroke-linecap="round" stroke-linejoin="round" opacity="1"/><line x1="974" y1="346" x2="974" y2="404" stroke="#087a45" stroke-width="4" stroke-linecap="round" stroke-linejoin="round" opacity="1"/><line x1="792" y1="466" x2="850" y2="466" stroke="#087a45" stroke-width="4" stroke-linecap="round" stroke-linejoin="round" opacity="1"/><line x1="792" y1="408" x2="792" y2="466" stroke="#087a45" stroke-width="4" stroke-linecap="round" stroke-linejoin="round" opacity="1"/><line x1="974" y1="408" x2="974" y2="466" stroke="#087a45" stroke-width="4" stroke-linecap="round" stroke-linejoin="round" opacity="1"/><line x1="916" y1="466" x2="974" y2="466" stroke="#087a45" stroke-width="4" stroke-linecap="round" stroke-linejoin="round" opacity="1"/><line x1="912" y1="470" x2="912" y2="528" stroke="#087a45" stroke-width="4" stroke-linecap="round" stroke-linejoin="round" opacity="1"/><line x1="854" y1="528" x2="912" y2="528" stroke="#087a45" stroke-width="4" stroke-linecap="round" stroke-linejoin="round" opacity="1"/><line x1="854" y1="470" x2="854" y2="528" stroke="#087a45" stroke-width="4" stroke-linecap="round" stroke-linejoin="round" opacity="1"/><rect x="768" y="535" width="298" height="38" rx="19" fill="#ffffff" stroke="#175b8f" stroke-width="2"/><text x="917" y="559.1" text-anchor="middle" font-family="Segoe UI, Arial, sans-serif" font-size="15" font-weight="700" letter-spacing="0.25" fill="#132b25">FOCUS: adder.bit1 · tag C17</text><rect x="84" y="612" width="278" height="38" rx="19" fill="#e3f0e9" stroke="#087a45" stroke-width="2"/><text x="223" y="636.78" text-anchor="middle" font-family="Segoe UI, Arial, sans-serif" font-size="17" font-weight="700" letter-spacing="0.25" fill="#132b25">TAG = IDENTITY</text><rect x="461" y="612" width="278" height="38" rx="19" fill="#e3edf5" stroke="#175b8f" stroke-width="2"/><text x="600" y="636.78" text-anchor="middle" font-family="Segoe UI, Arial, sans-serif" font-size="17" font-weight="700" letter-spacing="0.25" fill="#132b25">CONTOUR = DERIVED VIEW</text><rect x="838" y="612" width="278" height="38" rx="19" fill="#ffffff" stroke="#132b25" stroke-width="2" stroke-dasharray="8 5"/><text x="977" y="636.78" text-anchor="middle" font-family="Segoe UI, Arial, sans-serif" font-size="17" font-weight="700" letter-spacing="0.25" fill="#132b25">FOCUS = INSPECTION ONLY</text>
</svg>
